<svg viewBox="0 0 600 400" xmlns="http://www.w3.org/2000/svg">
<g transform="translate(72, 364)">
<g>
<g>
<path d="M0,-0.00011625079 L0,-0.00011625079 L0.4804805,-0.001383938 L0.960961,-0.0017299225 L1.4414414,-0.005306018 L1.921922,-0.005422269 L2.4024024,-0.014301615 L2.8828828,-0.013493395 L3.3633633,-0.015109835 L3.843844,-0.020645587 L4.324324,-0.015223318 L4.804805,-0.033214513 L5.2852855,-0.037366327 L5.7657657,-0.035406668 L6.2462463,-0.050054267 L6.7267265,-0.060779788 L7.207207,-0.05397358 L7.687688,-0.0748489 L8.168168,-0.09676217 L8.648648,-0.10010577 L9.129129,-0.08626639 L9.60961,-0.12063511 L10.09009,-0.1476219 L10.570571,-0.14958155 L11.051051,-0.15650125 L11.531531,-0.22316 L12.0120125,-0.20055753 L12.492493,-0.25383914 L12.972973,-0.2636402 L13.453453,-0.47423127 L13.933934,-0.2856697 L14.414414,-0.34252465 L14.894895,-0.30769646 L15.375376,-0.3132322 L15.855856,-0.34460056 L16.336336,-0.4118378 L16.816816,-0.49383613 L17.297297,-0.47042543 L17.777779,-0.46108386 L18.258259,-0.49475783 L18.738739,-0.52947253 L19.21922,-0.47884253 L19.6997,-0.5398521 L20.18018,-0.5877142 L20.66066,-0.5050239 L21.141142,-0.56441694 L21.621622,-0.6722479 L22.102102,-0.69323945 L22.582582,-0.79945666 L23.063063,-0.82759494 L23.543543,-0.7638203 L24.024025,-0.9339284 L24.504505,-0.70108086 L24.984985,-1.9309394 L25.465466,-4.981717 L25.945946,-4.488573 L26.426426,-1.0852399 L26.906906,-1.0196162 L27.387388,-0.94269425 L27.867868,-0.97590876 L28.348349,-1.024806 L28.828829,-1.0569826 L29.309309,-0.8397044 L29.78979,-1.2126757 L30.27027,-1.4168065 L30.750751,-2.771106 L31.231232,-1.2829105 L31.711712,-1.4302999 L32.192192,-1.4394118 L32.672672,-1.5844955 L33.153152,-1.3854382 L33.633633,-1.6030624 L34.114113,-1.6347767 L34.594593,-1.5215263 L35.075073,-1.5585467 L35.555557,-1.5405555 L36.036037,-1.6095198 L36.516518,-1.5680017 L36.996998,-1.5095303 L37.477478,-1.4567109 L37.95796,-1.7936999 L38.43844,-1.5808032 L38.91892,-1.884464 L39.3994,-7.797915 L39.87988,-1.4610925 L40.36036,-1.7838961 L40.84084,-1.8015412 L41.32132,-1.8708544 L41.801804,-7.615581 L42.282284,-1.5191045 L42.762764,-1.4264941 L43.243244,-1.7333823 L43.723724,-1.6658019 L44.204205,-1.6811386 L44.684685,-1.553011 L45.165165,-1.828528 L45.645645,-1.8622048 L46.126125,-1.9139862 L46.606606,-1.8432919 L47.087086,-2.0210116 L47.567566,-1.9830697 L48.04805,-1.9685383 L48.52853,-2.1391087 L49.00901,-2.030583 L49.48949,-2.0448847 L49.96997,-4.1181397 L50.45045,-12.568119 L50.93093,-1.997947 L51.41141,-2.0753312 L51.89189,-2.0726795 L52.37237,-2.2711585 L52.85285,-2.0212414 L53.333332,-2.1161575 L53.813812,-2.15364 L54.294292,-4.374398 L54.774776,-3.0816839 L55.255257,-3.174178 L55.735737,-2.7195544 L56.216217,-9.736582 L56.696697,-2.3606522 L57.177177,-2.3468127 L57.657658,-2.2927258 L58.138138,-2.5969596 L58.618618,-2.621411 L59.0991,-2.8533342 L59.57958,-2.9998019 L60.06006,-5.599183 L60.54054,-4.938353 L61.021023,-4.59998 L61.501503,-10.581706 L61.981983,-4.4832673 L62.462463,-4.5471606 L62.942944,-4.465046 L63.423424,-4.453745 L63.903904,-4.078465 L64.384384,-6.6813064 L64.86487,-3.9003994 L65.345345,-3.979976 L65.82583,-4.1249433 L66.306305,-3.7429764 L66.78679,-4.0145745 L67.267265,-5.8082743 L67.74775,-4.0742 L68.228226,-3.8564594 L68.70871,-4.014458 L69.189186,-3.503439 L69.66967,-3.8490775 L70.15015,-4.214437 L70.63063,-3.911471 L71.111115,-10.0817585 L71.59159,-7.959719 L72.072075,-6.4386578 L72.55255,-6.0473495 L73.033035,-3.6030824 L73.51351,-4.158966 L73.993996,-4.4328694 L74.47447,-4.4746175 L74.954956,-4.3614807 L75.43543,-13.609879 L75.91592,-6.2255316 L76.39639,-4.3598666 L76.87688,-7.948648 L77.35736,-12.080049 L77.83784,-8.233393 L78.31832,-4.5417385 L78.7988,-5.648313 L79.27928,-25.066347 L79.75976,-4.8949885 L80.24024,-6.701836 L80.72072,-19.94739 L81.2012,-11.641919 L81.68168,-5.3062506 L82.16216,-4.813223 L82.64264,-5.421118 L83.12312,-5.7690616 L83.60361,-5.6861415 L84.08408,-5.6164827 L84.56457,-5.7960486 L85.045044,-11.292358 L85.52553,-7.0285616 L86.006004,-5.7989326 L86.48649,-5.462749 L86.966965,-5.9829965 L87.44745,-5.675762 L87.927925,-7.799415 L88.40841,-9.227523 L88.888885,-5.609101 L89.36937,-6.4602222 L89.84985,-6.231297 L90.33033,-6.1298075 L90.810814,-5.98634 L91.29129,-6.585123 L91.771774,-6.807591 L92.25225,-6.7347045 L92.732735,-6.894779 L93.21321,-6.8033257 L93.693695,-6.782334 L94.17417,-6.3295565 L94.654655,-7.034789 L95.13513,-6.870906 L95.615616,-17.216997 L96.0961,-26.450514 L96.57658,-7.1051373 L97.05706,-25.442085 L97.53754,-7.0874925 L98.01802,-7.85281 L98.4985,-17.084715 L98.97898,-7.5159373 L99.45946,-8.232009 L99.93994,-19.025688 L100.42042,-8.050714 L100.9009,-8.056595 L101.38138,-7.4659996 L101.86186,-8.150819 L102.34234,-8.443176 L102.82282,-15.794425 L103.30331,-8.294287 L103.78378,-30.563232 L104.26427,-8.653764 L104.74474,-8.783508 L105.22523,-8.125562 L105.7057,-10.422207 L106.18619,-19.811188 L106.666664,-8.26338 L107.14715,-8.707738 L107.627625,-8.890996 L108.10811,-9.210223 L108.588585,-9.300642 L109.06907,-9.23917 L109.54955,-9.791823 L110.03003,-9.477207 L110.51051,-9.203074 L110.99099,-8.931477 L111.47147,-9.4570265 L111.95195,-9.86425 L112.432434,-9.659774 L112.91291,-10.17529 L113.393394,-9.735774 L113.87387,-9.572815 L114.354355,-9.779714 L114.83483,-10.821011 L115.315315,-16.066599 L115.7958,-10.4023695 L116.276276,-22.682167 L116.75676,-10.669356 L117.237236,-11.7944975 L117.71772,-10.963902 L118.1982,-10.538458 L118.67868,-10.868181 L119.15916,-10.564982 L119.63964,-11.030102 L120.12012,-19.184381 L120.6006,-17.812551 L121.08108,-15.212016 L121.56156,-12.483236 L122.042046,-33.482418 L122.52252,-11.665329 L123.003006,-29.633688 L123.48348,-24.885168 L123.96397,-11.335607 L124.44444,-11.540545 L124.92493,-12.081086 L125.4054,-12.071515 L125.88589,-16.711052 L126.36636,-13.6179495 L126.84685,-12.622438 L127.327324,-12.505263 L127.80781,-38.53783 L128.28828,-14.600779 L128.76877,-13.550137 L129.24925,-13.477826 L129.72974,-13.310256 L130.2102,-13.208191 L130.69069,-12.792201 L131.17117,-20.620562 L131.65166,-20.375143 L132.13213,-14.311995 L132.61261,-18.196594 L133.0931,-14.766389 L133.57358,-17.74301 L134.05405,-13.729357 L134.53453,-14.254102 L135.01501,-13.218338 L135.4955,-14.683814 L135.97598,-24.885742 L136.45645,-14.233342 L136.93694,-14.8170185 L137.41742,-14.350515 L137.8979,-39.423782 L138.37837,-14.869145 L138.85886,-27.951857 L139.33934,-15.608861 L139.81982,-14.708838 L140.3003,-15.630196 L140.78078,-15.650609 L141.26126,-15.147893 L141.74174,-19.305243 L142.22223,-26.888992 L142.7027,-15.1374 L143.18318,-16.197727 L143.66367,-15.475886 L144.14415,-35.952633 L144.62462,-17.875404 L145.1051,-17.120466 L145.58559,-15.50795 L146.06607,-17.382607 L146.54654,-16.32378 L147.02702,-17.279966 L147.5075,-17.853954 L147.98799,-16.825226 L148.46848,-17.181477 L148.94894,-27.401512 L149.42943,-17.04412 L149.90991,-27.488237 L150.3904,-23.654268 L150.87086,-20.997107 L151.35135,-18.543732 L151.83183,-19.788008 L152.31232,-18.475689 L152.79279,-17.078373 L153.27327,-18.277323 L153.75375,-27.442568 L154.23424,-29.034214 L154.71472,-55.160652 L155.19519,-20.011168 L155.67567,-37.19368 L156.15616,-18.544193 L156.63664,-18.610851 L157.11711,-18.623886 L157.5976,-19.607634 L158.07808,-42.73243 L158.55856,-19.656996 L159.03903,-31.244709 L159.51952,-18.292662 L160,-28.545567 L160.48048,-28.482136 L160.96097,-21.11532 L161.44144,-23.08443 L161.92192,-20.09282 L162.4024,-20.030197 L162.88289,-20.85802 L163.36336,-21.352896 L163.84384,-44.065968 L164.32433,-21.352549 L164.80481,-21.739475 L165.28528,-23.151323 L165.76576,-22.192024 L166.24625,-20.910727 L166.72673,-21.432125 L167.20721,-21.384726 L167.68768,-22.68032 L168.16817,-21.704878 L168.64865,-22.307467 L169.12914,-23.558084 L169.6096,-19.676138 L170.09009,-22.711805 L170.57057,-50.95867 L171.05106,-43.770267 L171.53152,-44.443092 L172.01201,-29.533352 L172.4925,-23.598797 L172.97298,-23.031729 L173.45346,-44.180954 L173.93393,-24.885742 L174.41441,-22.816063 L174.8949,-35.93222 L175.37538,-25.182714 L175.85585,-44.18718 L176.33633,-24.897968 L176.81682,-24.675268 L177.2973,-25.399992 L177.77777,-26.367365 L178.25826,-35.31683 L178.73874,-25.543575 L179.21922,-44.35729 L179.6997,-25.372082 L180.18018,-51.759396 L180.66066,-30.238123 L181.14114,-27.557089 L181.62163,-23.324314 L182.1021,-54.88225 L182.58258,-25.136353 L183.06306,-26.355139 L183.54355,-47.297928 L184.02402,-27.043648 L184.5045,-27.43461 L184.98499,-44.027912 L185.46547,-25.99566 L185.94595,-28.025553 L186.42642,-28.092558 L186.9069,-41.639465 L187.38739,-27.53091 L187.86787,-27.161283 L188.34834,-40.097527 L188.82883,-56.216022 L189.30931,-32.835083 L189.7898,-51.095913 L190.27026,-88.1354 L190.75075,-54.3725 L191.23123,-27.235323 L191.71172,-28.819012 L192.1922,-28.414669 L192.67267,-27.763641 L193.15315,-27.840681 L193.63364,-29.27248 L194.11412,-28.534842 L194.59459,-28.993155 L195.07507,-29.236727 L195.55556,-29.633688 L196.03604,-54.553337 L196.51651,-30.23132 L196.997,-31.39106 L197.47748,-31.073446 L197.95796,-28.889246 L198.43845,-31.598305 L198.91891,-30.493343 L199.3994,-29.135471 L199.87988,-30.990755 L200.36037,-35.7041 L200.84084,-30.963882 L201.32132,-33.140125 L201.8018,-58.53585 L202.28229,-57.469986 L202.76276,-32.46742 L203.24324,-32.00622 L203.72372,-31.978771 L204.20421,-32.31103 L204.68468,-32.817898 L205.16516,-31.427963 L205.64565,-32.94718 L206.12613,-33.218086 L206.60661,-34.309208 L207.08708,-144.31625 L207.56757,-43.613766 L208.04805,-39.099014 L208.52853,-63.57742 L209.009,-44.385777 L209.48949,-33.72011 L209.96997,-48.779663 L210.45045,-38.92914 L210.93092,-34.74561 L211.4114,-35.14326 L211.89189,-51.32922 L212.37238,-37.297127 L212.85286,-38.883354 L213.33333,-49.33278 L213.81381,-52.634163 L214.2943,-54.646984 L214.77478,-41.362793 L215.25525,-43.205276 L215.73573,-38.9642 L216.21622,-43.38738 L216.6967,-55.778008 L217.17717,-36.218925 L217.65765,-38.108696 L218.13814,-36.6002 L218.61862,-56.394436 L219.0991,-46.444843 L219.57957,-70.245346 L220.06006,-85.97184 L220.54054,-37.07535 L221.02103,-35.974663 L221.5015,-42.572933 L221.98198,-53.61422 L222.46246,-76.25291 L222.94295,-38.694904 L223.42342,-68.69188 L223.9039,-40.12728 L224.38438,-40.314 L224.86487,-75.49059 L225.34535,-41.890305 L225.82582,-51.072155 L226.3063,-40.032135 L226.78679,-40.381123 L227.26727,-40.70796 L227.74774,-53.21161 L228.22823,-52.663685 L228.70871,-44.68436 L229.1892,-63.5434 L229.66966,-66.23804 L230.15015,-57.331593 L230.63063,-60.206608 L231.11111,-72.22703 L231.5916,-46.861065 L232.07207,-64.39463 L232.55255,-52.73265 L233.03304,-41.559772 L233.51352,-70.32642 L233.99399,-43.35947 L234.47447,-42.549404 L234.95496,-42.8827 L235.43544,-43.53581 L235.91591,-90.12619 L236.3964,-58.0344 L236.87688,-44.442516 L237.35736,-74.30479 L237.83784,-54.950874 L238.31831,-73.167305 L238.7988,-63.890305 L239.27928,-46.76684 L239.75977,-67.045105 L240.24023,-62.379505 L240.72072,-60.349728 L241.2012,-63.275143 L241.68169,-59.366558 L242.16216,-46.50147 L242.64264,-45.097927 L243.12312,-75.912346 L243.6036,-65.06908 L244.08409,-65.62288 L244.56456,-61.95556 L245.04504,-46.694645 L245.52553,-47.787148 L246.00601,-46.281887 L246.48648,-47.12551 L246.96696,-47.48049 L247.44745,-46.558327 L247.92793,-48.440483 L248.4084,-48.726612 L248.88889,-87.99666 L249.36937,-57.10036 L249.84985,-51.357594 L250.33034,-50.470257 L250.8108,-93.016205 L251.29129,-47.137043 L251.77177,-47.20082 L252.25226,-49.322052 L252.73273,-51.123016 L253.21321,-50.96017 L253.6937,-51.102947 L254.17418,-50.17133 L254.65465,-54.12789 L255.13513,-101.69857 L255.61562,-67.1233 L256.0961,-78.13933 L256.57657,-56.430187 L257.05707,-85.66264 L257.53754,-68.013176 L258.018,-71.99453 L258.4985,-52.086353 L258.97897,-52.175617 L259.45947,-53.682034 L259.93994,-76.761734 L260.4204,-67.749535 L260.9009,-73.95522 L261.38138,-76.565216 L261.86185,-57.551292 L262.34235,-56.222134 L262.8228,-77.49453 L263.3033,-64.74304 L263.78378,-54.609386 L264.26425,-179.5136 L264.74475,-55.329266 L265.22522,-56.411964 L265.70572,-56.600758 L266.1862,-59.250305 L266.66666,-70.287094 L267.14716,-83.39207 L267.62762,-57.38787 L268.1081,-112.92992 L268.5886,-67.40804 L269.06906,-76.78826 L269.54956,-74.678566 L270.03003,-57.756115 L270.5105,-66.4725 L270.991,-58.11121 L271.47147,-56.44449 L271.95197,-59.820488 L272.43243,-78.01224 L272.9129,-85.819145 L273.3934,-55.86808 L273.87387,-64.92018 L274.35434,-80.41568 L274.83484,-68.95667 L275.3153,-59.1329 L275.7958,-66.587944 L276.27628,-106.860886 L276.75674,-86.38783 L277.23724,-60.802162 L277.7177,-59.112144 L278.1982,-62.456314 L278.67868,-126.4405 L279.15915,-79.88794 L279.63965,-76.34125 L280.12012,-90.206696 L280.6006,-63.273415 L281.0811,-118.63024 L281.56155,-109.97878 L282.04205,-69.98332 L282.52252,-98.90786 L283.003,-106.77912 L283.4835,-129.73703 L283.96396,-116.88532 L284.44446,-97.832886 L284.92493,-64.45807 L285.4054,-87.15719 L285.8859,-64.64824 L286.36636,-64.99077 L286.84683,-73.3659 L287.32733,-108.64075 L287.8078,-89.0029 L288.2883,-62.372932 L288.76877,-64.64663 L289.24924,-63.1567 L289.72974,-87.64987 L290.2102,-120.79299 L290.6907,-93.36461 L291.17117,-112.40944 L291.65164,-78.75484 L292.13214,-102.054474 L292.6126,-70.94816 L293.09308,-119.405594 L293.57358,-149.83908 L294.05405,-97.56059 L294.53455,-76.07496 L295.015,-87.77823 L295.49548,-122.83326 L295.97598,-75.48517 L296.45645,-69.90305 L296.93695,-88.53835 L297.41742,-70.726494 L297.8979,-98.14369 L298.3784,-135.5512 L298.85886,-97.14668 L299.33932,-88.79577 L299.81982,-106.76678 L300.3003,-72.44108 L300.7808,-78.46259 L301.26126,-109.53269 L301.74173,-79.079025 L302.22223,-67.93498 L302.7027,-109.174484 L303.1832,-80.78288 L303.66367,-89.35361 L304.14413,-100.26585 L304.62463,-93.55132 L305.1051,-72.84519 L305.58557,-73.286896 L306.06607,-69.87341 L306.54654,-73.1056 L307.02704,-71.433 L307.5075,-74.5607 L307.98798,-115.28849 L308.46848,-124.72995 L308.94894,-75.53233 L309.42944,-118.23363 L309.9099,-84.356445 L310.39038,-120.56176 L310.87088,-135.37036 L311.35135,-75.301796 L311.83182,-85.76448 L312.31232,-123.769264 L312.7928,-84.927666 L313.2733,-106.39058 L313.75375,-88.354294 L314.23422,-117.7113 L314.71472,-127.75512 L315.1952,-149.60623 L315.6757,-80.22469 L316.15616,-89.49155 L316.63663,-146.43228 L317.11713,-78.46836 L317.5976,-119.6103 L318.07806,-87.976364 L318.55856,-114.50438 L319.03903,-135.5144 L319.51953,-92.85348 L320,-94.88509 L320.48047,-123.69718 L320.96097,-107.55251 L321.44144,-89.426384 L321.92194,-81.79858 L322.4024,-106.629074 L322.88287,-110.28798 L323.36337,-134.95679 L323.84384,-123.9734 L324.3243,-98.70211 L324.8048,-139.50291 L325.28528,-102.185486 L325.76578,-123.33667 L326.24625,-117.83909 L326.7267,-141.47041 L327.2072,-114.22944 L327.68768,-110.97383 L328.16818,-126.92084 L328.64865,-123.92957 L329.12912,-95.650185 L329.60962,-100.97108 L330.0901,-129.88846 L330.57056,-106.476036 L331.05106,-89.73385 L331.53152,-181.16371 L332.01202,-90.04235 L332.4925,-120.498215 L332.97296,-97.87209 L333.45346,-90.30322 L333.93393,-149.85292 L334.41443,-99.66095 L334.8949,-148.50784 L335.37537,-94.2682 L335.85587,-139.21782 L336.33633,-117.90263 L336.8168,-111.49881 L337.2973,-156.0585 L337.77777,-114.5986 L338.25827,-162.39624 L338.73874,-113.724525 L339.2192,-172.78247 L339.6997,-91.46642 L340.18018,-138.67981 L340.66068,-125.56181 L341.14114,-109.8713 L341.6216,-97.09363 L342.1021,-84.870346 L342.58258,-102.20359 L343.06305,-109.00426 L343.54355,-93.59077 L344.02402,-96.08231 L344.50452,-107.309746 L344.985,-135.52617 L345.46545,-92.353874 L345.94595,-95.4878 L346.42642,-93.25804 L346.90692,-130.81651 L347.3874,-155.28499 L347.86786,-94.53946 L348.34836,-110.651955 L348.82883,-118.91268 L349.3093,-115.28342 L349.7898,-98.991936 L350.27026,-134.45268 L350.75076,-129.11127 L351.23123,-187.22685 L351.7117,-104.41109 L352.1922,-146.3037 L352.67267,-135.91966 L353.15317,-118.250465 L353.63364,-99.24197 L354.1141,-119.42854 L354.5946,-100.182465 L355.07507,-233.0458 L355.55554,-340 L356.03604,-189.33032 L356.5165,-103.24685 L356.997,-105.131195 L357.47748,-135.5957 L357.95795,-107.99341 L358.43845,-102.52939 L358.9189,-101.98447 L359.3994,-126.60657 L359.87988,-109.640755 L360.36035,-134.27959 L360.84085,-158.7152 L361.32132,-131.40514 L361.8018,-102.96499 L362.2823,-101.55418 L362.76276,-103.922325 L363.24326,-126.18054 L363.72372,-154.51933 L364.2042,-101.53549 L364.6847,-103.61786 L365.16516,-115.99811 L365.64566,-172.63992 L366.12613,-106.41445 L366.6066,-201.13716 L367.0871,-158.36333 L367.56757,-105.45412 L368.04803,-152.368 L368.52853,-142.65356 L369.009,-139.3004 L369.4895,-182.61453 L369.96997,-115.66642 L370.45044,-103.652 L370.93094,-151.97139 L371.4114,-184.50061 L371.8919,-110.390045 L372.37238,-109.17691 L372.85284,-217.89827 L373.33334,-120.373085 L373.8138,-116.24548 L374.29428,-111.75011 L374.77478,-108.804855 L375.25525,-123.80467 L375.73575,-112.04708 L376.21622,-112.675385 L376.6967,-109.15108 L377.1772,-189.84412 L377.65765,-195.82988 L378.13815,-147.73723 L378.61862,-125.6656 L379.0991,-124.69812 L379.5796,-178.59467 L380.06006,-111.693596 L380.54053,-112.8591 L381.02103,-143.4078 L381.5015,-134.20093 L381.982,-221.51242 L382.46246,-166.28741 L382.94293,-271.85373 L383.42343,-144.97557 L383.9039,-119.76288 L384.3844,-108.933105 L384.86487,-117.54881 L385.34534,-208.5809 L385.82584,-187.47078 L386.3063,-131.58563 L386.78677,-125.206024 L387.26727,-116.07987 L387.74774,-186.39627 L388.22824,-124.22493 L388.7087,-147.10696 L389.18918,-118.3568 L389.66968,-180.61267 L390.15015,-155.02481 L390.63065,-181.19693 L391.1111,-169.50276 L391.59158,-140.098 L392.07208,-230.82944 L392.55255,-194.11829 L393.03302,-117.56311 L393.51352,-179.8537 L393.994,-175.46765 L394.4745,-214.4653 L394.95496,-127.534035 L395.43542,-157.10672 L395.91592,-184.11266 L396.3964,-136.56078 L396.8769,-155.94582 L397.35736,-124.529396 L397.83783,-181.56424 L398.31833,-191.06406 L398.7988,-125.90088 L399.27927,-170.06049 L399.75977,-140.40292 L400.24023,-165.45105 L400.72073,-151.25728 L401.2012,-219.77893 L401.68167,-125.840096 L402.16217,-203.78947 L402.64264,-191.72166 L403.1231,-135.3948 L403.6036,-157.98274 L404.08408,-192.31836 L404.56458,-163.02939 L405.04504,-147.9214 L405.5255,-135.56873 L406.006,-157.90721 L406.48648,-220.13402 L406.96698,-171.80495 L407.44745,-186.84685 L407.92792,-242.24843 L408.40842,-203.4172 L408.8889,-172.0288 L409.36935,-179.16011 L409.84985,-183.72653 L410.33032,-210.02228 L410.81082,-183.79988 L411.2913,-154.10657 L411.77176,-218.19455 L412.25226,-195.7917 L412.73273,-196.50662 L413.21323,-204.7376 L413.6937,-178.8635 L414.17416,-130.01775 L414.65466,-186.28128 L415.13513,-171.60866 L415.6156,-135.2684 L416.0961,-135.73526 L416.57657,-230.96887 L417.05707,-137.17477 L417.53754,-211.94849 L418.018,-171.78752 L418.4985,-181.17305 L418.97897,-198.99564 L419.45947,-185.2319 L419.93994,-282.8224 L420.4204,-218.73866 L420.9009,-178.4927 L421.38138,-135.695 L421.86185,-147.93929 L422.34235,-159.81543 L422.8228,-195.12027 L423.3033,-146.0727 L423.78378,-173.38344 L424.26425,-172.17284 L424.74475,-226.27731 L425.22522,-142.00587 L425.70572,-213.825 L426.1862,-209.54654 L426.66666,-202.6535 L427.14716,-144.11385 L427.62762,-233.28915 L428.1081,-140.74902 L428.5886,-156.7033 L429.06906,-201.08124 L429.54956,-214.47025 L430.03003,-261.3998 L430.5105,-168.1908 L430.991,-216.54512 L431.47147,-186.03401 L431.95197,-146.87526 L432.43243,-224.6528 L432.9129,-208.41956 L433.3934,-216.46405 L433.87387,-179.34521 L434.35434,-216.21436 L434.83484,-220.27045 L435.3153,-173.15959 L435.7958,-188.56432 L436.27628,-208.68977 L436.75674,-165.58806 L437.23724,-262.2852 L437.7177,-186.95815 L438.1982,-188.21014 L438.67868,-233.80144 L439.15915,-212.63515 L439.63965,-191.08678 L440.12012,-184.94739 L440.6006,-220.13055 L441.0811,-178.21558 L441.56155,-200.07153 L442.04205,-195.39902 L442.52252,-237.4322 L443.003,-199.55244 L443.4835,-240.2115 L443.96396,-239.09467 L444.44446,-208.48483 L444.92493,-240.7923 L445.4054,-157.36285 L445.8859,-154.34726 L446.36636,-194.43025 L446.84683,-188.1202 L447.32733,-162.21576 L447.8078,-218.8594 L448.2883,-193.04424 L448.76877,-171.10802 L449.24924,-166.48763 L449.72974,-185.8654 L450.2102,-155.58139 L450.6907,-160.08588 L451.17117,-274.20123 L451.65164,-253.09192 L452.13214,-162.95512 L452.6126,-226.01968 L453.09308,-235.48616 L453.57358,-231.61748 L454.05405,-182.93158 L454.53455,-291.63702 L455.015,-217.55908 L455.49548,-163.14288 L455.97598,-221.43573 L456.45645,-226.28343 L456.93695,-210.66061 L457.41742,-248.08934 L457.8979,-254.33528 L458.3784,-235.94412 L458.85886,-274.4093 L459.33932,-267.2631 L459.81982,-214.19392 L460.3003,-179.04951 L460.7808,-282.54028 L461.26126,-161.14874 L461.74173,-235.65523 L462.22223,-202.10004 L462.7027,-162.75294 L463.1832,-165.92401 L463.66367,-206.28104 L464.14413,-263.5756 L464.62463,-233.1984 L465.1051,-177.61679 L465.58557,-208.65344 L466.06607,-199.15536 L466.54654,-228.43707 L467.02704,-163.67892 L467.5075,-230.19894 L467.98798,-238.74994 L468.46848,-243.60641 L468.94894,-182.13165 L469.42944,-284.79886 L469.9099,-258.78833 L470.39038,-213.49481 L470.87088,-232.73558 L471.35135,-170.7986 L471.83182,-242.80165 L472.31232,-261.7465 L472.7928,-270.55606 L473.2733,-202.47647 L473.75375,-178.38535 L474.23422,-222.52557 L474.71472,-255.18536 L475.1952,-210.91249 L475.6757,-200.69153 L476.15616,-267.18054 L476.63663,-260.70197 L477.11713,-284.38992 L477.5976,-223.56377 L478.07806,-246.08228 L478.55856,-186.48357 L479.03903,-256.29666 L479.51953,-241.9435 L480,-180.97757" fill="none" stroke="burlywood" stroke-linejoin="round" stroke-width="2"/>
</g>
</g>
<g transform="translate(380, -340)">
<text font-size="12" text-anchor="start" x="0" y="0">
bubble sort
</text>
<line stroke="burlywood" stroke-width="2" x1="-10" x2="-3" y1="-4" y2="-4"/>
</g>
<g>
<g>
<path d="M0,-0 L0,-0 L0.4804805,-0.0011542042 L0.960961,-0.0015001887 L1.4414414,-0.002767876 L1.921922,-0.0043843156 L2.4024024,-0.00691969 L2.8828828,-0.008882114 L3.3633633,-0.009687566 L3.843844,-0.011763473 L4.324324,-0.014071882 L4.804805,-0.01856968 L5.2852855,-0.021337556 L5.7657657,-0.024218915 L6.2462463,-0.027103042 L6.7267265,-0.030908871 L7.207207,-0.034944434 L7.687688,-0.039904468 L8.168168,-0.0448645 L8.648648,-0.04774586 L9.129129,-0.05351411 L9.60961,-0.058241647 L10.09009,-0.063777395 L10.570571,-0.070813335 L11.051051,-0.07404068 L11.531531,-0.08315253 L12.0120125,-0.10068149 L12.492493,-0.107833676 L12.972973,-0.11763473 L13.453453,-0.12317048 L13.933934,-0.13124438 L14.414414,-0.14093193 L14.894895,-0.12997669 L15.375376,-0.13816406 L15.855856,-0.14658394 L16.336336,-0.17783603 L16.816816,-0.18671815 L17.297297,-0.1967517 L17.777779,-0.2054013 L18.258259,-0.21704853 L18.738739,-0.22996621 L19.21922,-0.23815358 L19.6997,-0.22120035 L20.18018,-0.23100416 L20.66066,-0.2387293 L21.141142,-0.25026304 L21.621622,-0.26052633 L22.102102,-0.27183032 L22.582582,-0.2985846 L23.063063,-0.3390648 L23.543543,-0.35002282 L24.024025,-0.36490017 L24.504505,-0.34033525 L24.984985,-0.3420652 L25.465466,-1.3194714 L25.945946,-1.1056529 L26.426426,-2.1362245 L26.906906,-0.39280865 L27.387388,-0.35878593 L27.867868,-0.37204957 L28.348349,-0.38323733 L28.828829,-0.39580625 L29.309309,-0.41010788 L29.78979,-0.6179283 L30.27027,-0.53004825 L30.750751,-0.5818324 L31.231232,-0.524745 L31.711712,-0.53927636 L32.192192,-0.5528832 L32.672672,-0.5712204 L33.153152,-0.5846003 L33.633633,-0.6061648 L34.114113,-0.6227721 L34.594593,-0.63453555 L35.075073,-0.71503645 L35.555557,-0.66947997 L36.036037,-0.60731906 L36.516518,-0.6227721 L36.996998,-0.6424932 L37.477478,-0.6517213 L37.95796,-0.67109644 L38.43844,-0.6853953 L38.91892,-0.70580834 L39.3994,-9.604762 L39.87988,-2.8313074 L40.36036,-0.7006186 L40.84084,-0.69150954 L41.32132,-0.85527366 L41.801804,-0.8379744 L42.282284,-5.18354 L42.762764,-0.68066776 L43.243244,-0.6999266 L43.723724,-0.71180636 L44.204205,-0.6653282 L44.684685,-0.6787081 L45.165165,-0.69289345 L45.645645,-0.7086925 L46.126125,-0.7233401 L46.606606,-1.3572972 L47.087086,-0.7533245 L47.567566,-0.7675099 L48.04805,-0.78134924 L48.52853,-0.80026215 L49.00901,-0.8144475 L49.48949,-0.82413507 L49.96997,-0.7768514 L50.45045,-4.440019 L50.93093,-2.949864 L51.41141,-0.7897691 L51.89189,-0.80326253 L52.37237,-0.81848586 L52.85285,-0.8297871 L53.333332,-0.8466241 L53.813812,-0.8610419 L54.294292,-5.607141 L54.774776,-0.9573391 L55.255257,-0.90717137 L55.735737,-0.9817905 L56.216217,-2.2327542 L56.696697,-0.95168984 L57.177177,-0.97233266 L57.657658,-0.98409617 L58.138138,-0.99839777 L58.618618,-1.0260766 L59.0991,-1.032534 L59.57958,-1.0477573 L60.06006,-1.8466355 L60.54054,-1.8991089 L61.021023,-1.9109886 L61.501503,-1.9334776 L61.981983,-1.7415725 L62.462463,-1.767405 L62.942944,-1.8044254 L63.423424,-1.6308575 L63.903904,-1.6580739 L64.384384,-8.541898 L64.86487,-1.5383633 L65.345345,-1.8941516 L65.82583,-1.6082522 L66.306305,-1.5630444 L66.78679,-1.4890038 L67.267265,-1.5095303 L67.74775,-1.5278676 L68.228226,-1.5713481 L68.70871,-1.5728455 L69.189186,-1.4653606 L69.66967,-1.4853114 L70.15015,-1.5088384 L70.63063,-1.527062 L71.111115,-1.6264731 L71.59159,-9.615717 L72.072075,-1.5594684 L72.55255,-3.4930594 L73.033035,-1.5608523 L73.51351,-1.5805734 L73.993996,-1.6044463 L74.47447,-1.6260136 L74.954956,-1.6448103 L75.43543,-1.6682237 L75.91592,-1.7191969 L76.39639,-1.7052441 L76.87688,-1.7276168 L77.35736,-2.8678656 L77.83784,-6.342588 L78.31832,-1.7920862 L78.7988,-6.38203 L79.27928,-1.8414457 L79.75976,-1.8767362 L80.24024,-4.707581 L80.72072,-2.8147001 L81.2012,-1.9512391 L81.68168,-2.0714092 L82.16216,-1.9686518 L82.64264,-1.9892974 L83.12312,-10.024325 L83.60361,-2.033121 L84.08408,-2.060108 L84.56457,-2.0778694 L85.045044,-2.4924724 L85.52553,-7.6750903 L86.006004,-2.15041 L86.48649,-2.1753209 L86.966965,-2.2006938 L87.44745,-2.2276807 L87.927925,-11.970141 L88.40841,-2.2826922 L88.888885,-2.2948017 L89.36937,-2.3537326 L89.84985,-2.3438153 L90.33033,-2.3676882 L90.810814,-2.3955967 L91.29129,-2.4160097 L91.771774,-2.4529166 L92.25225,-2.4717133 L92.732735,-2.4965105 L93.21321,-2.5180752 L93.693695,-2.5470243 L94.17417,-2.610107 L94.654655,-2.5977678 L95.13513,-2.6230247 L95.615616,-2.652317 L96.0961,-2.6817257 L96.57658,-2.7020254 L97.05706,-9.932177 L97.53754,-2.7581885 L98.01802,-2.8031664 L98.4985,-2.854372 L98.97898,-3.1155903 L99.45946,-2.8679817 L99.93994,-4.5586915 L100.42042,-3.6880813 L100.9009,-2.9502099 L101.38138,-3.439548 L101.86186,-3.0017614 L102.34234,-4.1820307 L102.82282,-3.0646172 L103.30331,-3.0834138 L103.78378,-3.1140928 L104.26427,-3.147075 L104.74474,-3.269786 L105.22523,-3.1973588 L105.7057,-3.2485647 L106.18619,-3.260558 L106.666664,-3.2881231 L107.14715,-3.3199537 L107.627625,-3.355936 L108.10811,-3.3710432 L108.588585,-3.3991842 L109.06907,-3.4306688 L109.54955,-3.4976735 L110.03003,-3.4920216 L110.51051,-3.528004 L110.99099,-3.5536067 L111.47147,-3.582902 L111.95195,-3.614846 L112.432434,-3.648293 L112.91291,-3.6775854 L113.393394,-3.7039964 L113.87387,-3.7381327 L114.354355,-3.8074458 L114.83483,-3.8053699 L115.315315,-3.8344326 L115.7958,-3.9503374 L116.276276,-3.8957853 L116.75676,-3.958295 L117.237236,-3.9580626 L117.71772,-4.0859632 L118.1982,-4.0567846 L118.67868,-4.081579 L119.15916,-4.087115 L119.63964,-4.127365 L120.12012,-8.979222 L120.6006,-16.194036 L121.08108,-14.54934 L121.56156,-5.26796 L122.042046,-13.920341 L122.52252,-4.839285 L123.003006,-4.3611345 L123.48348,-4.4196057 L123.96397,-4.41753 L124.44444,-4.4620485 L124.92493,-4.4893813 L125.4054,-4.534243 L125.88589,-4.564344 L126.36636,-4.60321 L126.84685,-11.523013 L127.327324,-4.6790943 L127.80781,-4.7422957 L128.28828,-4.8338656 L128.76877,-7.85754 L129.24925,-4.9241676 L129.72974,-4.90952 L130.2102,-4.903525 L130.69069,-5.272804 L131.17117,-4.9441185 L131.65166,-5.707247 L132.13213,-6.209616 L132.61261,-16.470016 L133.0931,-7.338331 L133.57358,-5.4063535 L134.05405,-5.1547093 L134.53453,-5.194611 L135.01501,-5.2379756 L135.4955,-5.299215 L135.97598,-5.3435006 L136.45645,-5.353534 L136.93694,-5.419847 L137.41742,-5.415236 L137.8979,-5.490428 L138.37837,-5.8020463 L138.85886,-14.773078 L139.33934,-5.5645847 L139.81982,-5.604949 L140.3003,-5.646583 L140.78078,-5.6793356 L141.26126,-5.721316 L141.74174,-5.757298 L142.22223,-5.8003163 L142.7027,-5.8790846 L143.18318,-15.654877 L143.66367,-5.915989 L144.14415,-5.956469 L144.62462,-5.997874 L145.1051,-6.032932 L145.58559,-9.242746 L146.06607,-6.1211576 L146.54654,-6.1471066 L147.02702,-6.189549 L147.5075,-6.233257 L147.98799,-7.0429764 L148.46848,-18.730217 L148.94894,-6.3576975 L149.42943,-14.799257 L149.90991,-11.380584 L150.3904,-9.488278 L150.87086,-8.073665 L151.35135,-7.46554 L151.83183,-6.8991632 L152.31232,-6.6401343 L152.79279,-6.7507358 L153.27327,-6.7231708 L153.75375,-6.758461 L154.23424,-10.762426 L154.71472,-11.582523 L155.19519,-7.109289 L155.67567,-12.897496 L156.15616,-11.980291 L156.63664,-7.022447 L157.11711,-7.0601597 L157.5976,-7.10064 L158.07808,-7.19002 L158.55856,-7.2258863 L159.03903,-7.2302704 L159.51952,-16.295294 L160,-7.3166504 L160.48048,-7.7672386 L160.96097,-7.496908 L161.44144,-25.367125 L161.92192,-10.952948 L162.4024,-7.5408483 L162.88289,-7.591132 L163.36336,-7.6273446 L163.84384,-7.677742 L164.32433,-21.599812 L164.80481,-19.551817 L165.28528,-8.062364 L165.76576,-33.36686 L166.24625,-7.90021 L166.72673,-7.9453044 L167.20721,-7.9867063 L167.68768,-8.024189 L168.16817,-8.078279 L168.64865,-8.152432 L169.12914,-8.16708 L169.6096,-8.211596 L170.09009,-8.289442 L170.57057,-22.670288 L171.05106,-8.354028 L171.53152,-30.002737 L172.01201,-8.533824 L172.4925,-8.596563 L172.97298,-8.544549 L173.45346,-8.702435 L173.93393,-8.648345 L174.41441,-9.395671 L174.8949,-16.194267 L175.37538,-8.776359 L175.85585,-27.352959 L176.33633,-14.885753 L176.81682,-10.367658 L177.2973,-8.963653 L177.77777,-18.609009 L178.25826,-9.065486 L178.73874,-9.119113 L179.21922,-9.162015 L179.6997,-9.225563 L180.18018,-16.968697 L180.66066,-11.932659 L181.14114,-10.66428 L181.62163,-9.802665 L182.1021,-9.596226 L182.58258,-9.538793 L183.06306,-9.580427 L183.54355,-9.636014 L184.02402,-19.613861 L184.5045,-9.721473 L184.98499,-9.753535 L185.46547,-15.100955 L185.94595,-9.851449 L186.42642,-9.908421 L186.9069,-10.032858 L187.38739,-10.090983 L187.86787,-10.097673 L188.34834,-10.731863 L188.82883,-10.554257 L189.30931,-13.74954 L189.7898,-18.72399 L190.27026,-10.323026 L190.75075,-26.963495 L191.23123,-10.419323 L191.71172,-10.4693775 L192.1922,-10.522773 L192.67267,-10.57767 L193.15315,-10.626338 L193.63364,-10.676506 L194.11412,-10.766924 L194.59459,-10.822857 L195.07507,-10.875331 L195.55556,-10.88744 L196.03604,-44.071392 L196.51651,-11.003115 L196.997,-11.045442 L197.47748,-11.099415 L197.95796,-11.159384 L198.43845,-11.21186 L198.91891,-11.263988 L199.3994,-11.352443 L199.87988,-11.405957 L200.36037,-11.426138 L200.84084,-11.560726 L201.32132,-19.53002 L201.8018,-11.680436 L202.28229,-18.403494 L202.76276,-13.599037 L203.24324,-11.812718 L203.72372,-11.835784 L204.20421,-11.88676 L204.68468,-11.922858 L205.16516,-11.994707 L205.64565,-12.037033 L206.12613,-12.090082 L206.60661,-12.143018 L207.08708,-12.214291 L207.56757,-12.542747 L208.04805,-14.94826 L208.52853,-13.195848 L209.009,-17.12831 L209.48949,-12.493732 L209.96997,-25.703304 L210.45045,-15.6227 L210.93092,-13.226412 L211.4114,-12.854708 L211.89189,-21.39799 L212.37238,-12.842598 L212.85286,-24.080061 L213.33333,-12.943625 L213.81381,-13.356272 L214.2943,-13.367573 L214.77478,-15.218474 L215.25525,-13.179704 L215.73573,-13.56709 L216.21622,-13.641823 L216.6967,-13.974893 L217.17717,-14.347863 L217.65765,-13.505275 L218.13814,-13.524421 L218.61862,-13.582314 L219.0991,-14.308188 L219.57957,-13.728897 L220.06006,-13.782179 L220.54054,-13.95713 L221.02103,-13.896354 L221.5015,-13.951133 L221.98198,-33.206093 L222.46246,-32.302383 L222.94295,-14.23484 L223.42342,-14.28397 L223.9039,-14.282586 L224.38438,-14.344172 L224.86487,-31.269964 L225.34535,-16.400356 L225.82582,-14.592129 L226.3063,-18.888102 L226.78679,-14.665015 L227.26727,-14.7352495 L227.74774,-15.416956 L228.22823,-26.619242 L228.70871,-15.319042 L229.1892,-20.08267 L229.66966,-15.276485 L230.15015,-19.84648 L230.63063,-15.141898 L231.11111,-32.28289 L231.5916,-15.362749 L232.07207,-15.82245 L232.55255,-15.81057 L233.03304,-15.771128 L233.51352,-15.593521 L233.99399,-51.86573 L234.47447,-15.647381 L234.95496,-15.703198 L235.43544,-15.771589 L235.91591,-15.80342 L236.3964,-15.939392 L236.87688,-15.923822 L237.35736,-16.10754 L237.83784,-16.170856 L238.31831,-40.33741 L238.7988,-41.205025 L239.27928,-16.257582 L239.75977,-16.377062 L240.24023,-29.074461 L240.72072,-24.8809 L241.2012,-20.472248 L241.68169,-23.143482 L242.16216,-16.724777 L242.64264,-16.719933 L243.12312,-18.941154 L243.6036,-16.872396 L244.08409,-17.163252 L244.56456,-27.940556 L245.04504,-18.008955 L245.52553,-17.106974 L246.00601,-17.211576 L246.48648,-17.23487 L246.96696,-17.307182 L247.44745,-24.462488 L247.92793,-17.542913 L248.4084,-17.876213 L248.88889,-17.939758 L249.36937,-46.253517 L249.84985,-17.768034 L250.33034,-17.951176 L250.8108,-17.943563 L251.29129,-17.91358 L251.77177,-18.025333 L252.25226,-18.056238 L252.73273,-18.131779 L253.21321,-18.221045 L253.6937,-18.258757 L254.17418,-77.72749 L254.65465,-19.083584 L255.13513,-47.711494 L255.61562,-18.528624 L256.0961,-48.243618 L256.57657,-31.486666 L257.05707,-21.671202 L257.53754,-33.646534 L258.018,-39.245255 L258.4985,-18.95188 L258.97897,-19.022806 L259.45947,-19.090273 L259.93994,-29.313768 L260.4204,-25.864763 L260.9009,-31.42312 L261.38138,-24.334473 L261.86185,-63.71051 L262.34235,-20.584347 L262.8228,-22.582754 L263.3033,-34.244278 L263.78378,-19.737494 L264.26425,-19.807266 L264.74475,-19.882462 L265.22522,-19.967573 L265.70572,-20.012089 L266.1862,-20.08267 L266.66666,-20.16421 L267.14716,-43.626453 L267.62762,-20.302603 L268.1081,-23.445179 L268.5886,-20.478016 L269.06906,-20.796782 L269.54956,-20.587578 L270.03003,-76.27655 L270.5105,-21.63268 L270.991,-26.800884 L271.47147,-20.883623 L271.95197,-20.966776 L272.43243,-21.034819 L272.9129,-33.548042 L273.3934,-21.18867 L273.87387,-30.478006 L274.35434,-21.566021 L274.83484,-23.352339 L275.3153,-28.336246 L275.7958,-21.550682 L276.27628,-22.600515 L276.75674,-28.392525 L277.23724,-21.78134 L277.7177,-21.845348 L278.1982,-21.929422 L278.67868,-22.002655 L279.15915,-39.34997 L279.63965,-45.201954 L280.12012,-39.81451 L280.6006,-24.580585 L281.0811,-26.112028 L281.56155,-35.656704 L282.04205,-22.54089 L282.52252,-51.084263 L283.003,-22.69543 L283.4835,-34.08282 L283.96396,-22.854467 L284.44446,-35.69476 L284.92493,-22.993092 L285.4054,-23.064135 L285.8859,-32.618267 L286.36636,-24.234716 L286.84683,-30.220707 L287.32733,-23.454288 L287.8078,-25.250757 L288.2883,-23.565237 L288.76877,-23.61425 L289.24924,-23.69521 L289.72974,-23.758062 L290.2102,-37.34407 L290.6907,-29.894676 L291.17117,-33.00046 L291.65164,-24.084213 L292.13214,-43.889748 L292.6126,-39.949215 L293.09308,-24.381874 L293.57358,-27.476246 L294.05405,-28.759386 L294.53455,-40.674744 L295.015,-30.439949 L295.49548,-26.055746 L295.97598,-54.656902 L296.45645,-54.161568 L296.93695,-25.037514 L297.41742,-45.8915 L297.8979,-37.138554 L298.3784,-39.00618 L298.85886,-47.91724 L299.33932,-43.83612 L299.81982,-42.367416 L300.3003,-82.80874 L300.7808,-26.045254 L301.26126,-28.31272 L301.74173,-25.795567 L302.22223,-25.84931 L302.7027,-39.22945 L303.1832,-26.44198 L303.66367,-26.131058 L304.14413,-43.760353 L304.62463,-26.653608 L305.1051,-28.765383 L305.58557,-26.425373 L306.06607,-26.511063 L306.54654,-26.60667 L307.02704,-26.665487 L307.5075,-26.752905 L307.98798,-93.00294 L308.46848,-27.834223 L308.94894,-27.10212 L309.42944,-27.11054 L309.9099,-65.478836 L310.39038,-31.823195 L310.87088,-37.483845 L311.35135,-63.594257 L311.83182,-27.519148 L312.31232,-27.624556 L312.7928,-70.454895 L313.2733,-48.60148 L313.75375,-61.756157 L314.23422,-48.879192 L314.71472,-32.218193 L315.1952,-49.174084 L315.6757,-31.913727 L316.15616,-28.29173 L316.63663,-36.32053 L317.11713,-28.453419 L317.5976,-28.52815 L318.07806,-37.04998 L318.55856,-41.830795 L319.03903,-54.61123 L319.51953,-35.61253 L320,-72.68027 L320.48047,-34.321087 L320.96097,-35.932335 L321.44144,-33.046135 L321.92194,-29.309155 L322.4024,-47.321106 L322.88287,-29.484339 L323.36337,-29.584558 L323.84384,-31.885817 L324.3243,-43.205853 L324.8048,-44.881916 L325.28528,-29.931234 L325.76578,-30.083815 L326.24625,-30.102152 L326.7267,-34.617825 L327.2072,-39.829853 L327.68768,-30.363945 L328.16818,-53.41609 L328.64865,-35.263084 L329.12912,-42.770718 L329.60962,-51.601856 L330.0901,-59.211784 L330.57056,-37.06993 L331.05106,-36.196205 L331.53152,-31.231215 L332.01202,-48.647842 L332.4925,-49.092896 L332.97296,-33.54089 L333.45346,-70.51902 L333.93393,-82.09393 L334.41443,-48.072815 L334.8949,-31.713402 L335.37537,-62.26337 L335.85587,-31.920416 L336.33633,-59.14582 L336.8168,-35.103703 L337.2973,-39.129696 L337.77777,-43.70384 L338.25827,-32.336403 L338.73874,-47.741825 L339.2192,-45.784126 L339.6997,-34.831642 L340.18018,-55.10126 L340.66068,-47.60816 L341.14114,-39.54222 L341.6216,-79.75716 L342.1021,-48.582565 L342.58258,-48.64969 L343.06305,-43.108055 L343.54355,-40.35056 L344.02402,-44.756325 L344.50452,-33.54366 L344.985,-33.6335 L345.46545,-33.727146 L345.94595,-33.81226 L346.42642,-33.9164 L346.90692,-101.506546 L347.3874,-76.96909 L347.86786,-34.190994 L348.34836,-37.765476 L348.82883,-38.45583 L349.3093,-55.455547 L349.7898,-44.34587 L350.27026,-34.67745 L350.75076,-44.21255 L351.23123,-34.86555 L351.7117,-34.97546 L352.1922,-56.569157 L352.67267,-50.007908 L353.15317,-46.459606 L353.63364,-38.285606 L354.1141,-52.497955 L354.5946,-38.585228 L355.07507,-35.634907 L355.55554,-101.802246 L356.03604,-35.82116 L356.5165,-62.249184 L356.997,-36.000263 L357.47748,-82.427 L357.95795,-36.204857 L358.43845,-37.65084 L358.9189,-36.39215 L359.3994,-81.85774 L359.87988,-52.907143 L360.36035,-71.966965 L360.84085,-54.67097 L361.32132,-55.501564 L361.8018,-47.053085 L362.2823,-37.29932 L362.76276,-38.33243 L363.24326,-37.252613 L363.72372,-37.91644 L364.2042,-37.50772 L364.6847,-37.588333 L365.16516,-37.692013 L365.64566,-61.924995 L366.12613,-37.902832 L366.6066,-38.111 L367.0871,-53.050842 L367.56757,-38.15494 L368.04803,-38.289646 L368.52853,-65.18994 L369.009,-110.01085 L369.4895,-44.579525 L369.96997,-49.765026 L370.45044,-38.766296 L370.93094,-38.838375 L371.4114,-58.398956 L371.8919,-39.114586 L372.37238,-39.16383 L372.85284,-39.259785 L373.33334,-53.33132 L373.8138,-39.458263 L374.29428,-50.765614 L374.77478,-39.649593 L375.25525,-39.806786 L375.73575,-39.88786 L376.21622,-40.003418 L376.6967,-40.092915 L377.1772,-40.252182 L377.65765,-41.407196 L378.13815,-87.98547 L378.61862,-40.47442 L379.0991,-51.477535 L379.5796,-61.487095 L380.06006,-40.78973 L380.54053,-40.902058 L381.02103,-41.00666 L381.5015,-41.506607 L381.982,-74.61363 L382.46246,-75.91315 L382.94293,-46.489708 L383.42343,-45.27115 L383.9039,-41.718464 L384.3844,-41.720886 L384.86487,-41.81211 L385.34534,-63.478237 L385.82584,-50.55041 L386.3063,-49.55536 L386.78677,-42.230755 L387.26727,-99.96726 L387.74774,-42.449184 L388.22824,-42.5381 L388.7087,-42.65343 L389.18918,-42.756187 L389.66968,-43.139767 L390.15015,-72.135925 L390.63065,-44.36294 L391.1111,-51.395306 L391.59158,-54.266975 L392.07208,-44.07243 L392.55255,-43.52554 L393.03302,-43.632336 L393.51352,-43.741898 L393.994,-103.558464 L394.4745,-44.05121 L394.95496,-72.83112 L395.43542,-85.45056 L395.91592,-64.26731 L396.3964,-47.07096 L396.8769,-60.573814 L397.35736,-44.610783 L397.83783,-55.69774 L398.31833,-65.64087 L398.7988,-59.126328 L399.27927,-102.17268 L399.75977,-62.027756 L400.24023,-46.6168 L400.72073,-45.31832 L401.2012,-50.919117 L401.68167,-45.509415 L402.16217,-45.752415 L402.64264,-46.266083 L403.1231,-45.859554 L403.6036,-95.599785 L404.08408,-46.10013 L404.56458,-78.765335 L405.04504,-82.771835 L405.5255,-67.60041 L406.006,-46.513004 L406.48648,-75.3786 L406.96698,-83.875755 L407.44745,-50.3434 L407.92792,-64.94844 L408.40842,-47.1924 L408.8889,-61.99581 L409.36935,-70.85047 L409.84985,-47.439896 L410.33032,-74.67107 L410.81082,-47.62742 L411.2913,-61.412018 L411.77176,-51.647182 L412.25226,-54.18613 L412.73273,-68.48198 L413.21323,-72.71856 L413.6937,-51.75398 L414.17416,-48.389046 L414.65466,-48.50253 L415.13513,-196.17355 L415.6156,-50.149414 L416.0961,-58.73975 L416.57657,-97.19512 L417.05707,-51.79538 L417.53754,-49.17201 L418.018,-185.9977 L418.4985,-49.412354 L418.97897,-49.556396 L419.45947,-83.552605 L419.93994,-71.904 L420.4204,-110.68816 L420.9009,-62.51813 L421.38138,-50.11355 L421.86185,-52.267303 L422.34235,-50.35297 L422.8228,-50.456417 L423.3033,-50.89386 L423.78378,-50.878174 L424.26425,-66.29051 L424.74475,-74.43845 L425.22522,-51.042515 L425.70572,-51.131317 L426.1862,-64.97739 L426.66666,-72.238335 L427.14716,-51.480186 L427.62762,-51.62527 L428.1081,-51.68974 L428.5886,-59.952427 L429.06906,-51.96203 L429.54956,-110.19975 L430.03003,-89.27565 L430.5105,-52.26511 L430.991,-55.412186 L431.47147,-55.40469 L431.95197,-57.584274 L432.43243,-52.727116 L432.9129,-59.929127 L433.3934,-78.920906 L433.87387,-60.903076 L434.35434,-53.23456 L434.83484,-105.49898 L435.3153,-59.921635 L435.7958,-100.39086 L436.27628,-82.093124 L436.75674,-96.387245 L437.23724,-85.20364 L437.7177,-64.038155 L438.1982,-66.8652 L438.67868,-78.4371 L439.15915,-85.687904 L439.63965,-111.6236 L440.12012,-77.40077 L440.6006,-60.858788 L441.0811,-54.85665 L441.56155,-110.27956 L442.04205,-55.11706 L442.52252,-78.04522 L443.003,-93.51638 L443.4835,-80.73456 L443.96396,-68.85911 L444.44446,-55.686783 L444.92493,-78.44968 L445.4054,-55.92482 L445.8859,-56.041183 L446.36636,-71.079865 L446.84683,-56.301945 L447.32733,-67.51103 L447.8078,-56.543324 L448.2883,-107.321045 L448.76877,-85.377556 L449.24924,-83.79733 L449.72974,-80.866844 L450.2102,-69.51532 L450.6907,-57.291687 L451.17117,-57.421318 L451.65164,-90.57539 L452.13214,-57.614376 L452.6126,-57.742275 L453.09308,-57.870293 L453.57358,-64.331894 L454.05405,-106.61397 L454.53455,-103.697205 L455.015,-97.12476 L455.49548,-58.559605 L455.97598,-58.603085 L456.45645,-72.96271 L456.93695,-58.855423 L457.41742,-144.70064 L457.8979,-64.88143 L458.3784,-72.94334 L458.85886,-63.47743 L459.33932,-101.047424 L459.81982,-59.972378 L460.3003,-91.220314 L460.7808,-59.836636 L461.26126,-110.10195 L461.74173,-74.30294 L462.22223,-83.9002 L462.7027,-60.355957 L463.1832,-60.46679 L463.66367,-99.95803 L464.14413,-92.23716 L464.62463,-76.324066 L465.1051,-90.220764 L465.58557,-61.082066 L466.06607,-61.22046 L466.54654,-76.07657 L467.02704,-61.473488 L467.5075,-157.25087 L467.98798,-61.741627 L468.46848,-67.71954 L468.94894,-97.28922 L469.42944,-135.84943 L469.9099,-72.02059 L470.39038,-81.9462 L470.87088,-65.6343 L471.35135,-84.46646 L471.83182,-115.55686 L472.31232,-62.867805 L472.7928,-65.18394 L473.2733,-79.10071 L473.75375,-63.22832 L474.23422,-100.820114 L474.71472,-125.69894 L475.1952,-63.72723 L475.6757,-72.01356 L476.15616,-84.49968 L476.63663,-71.25989 L477.11713,-88.00439 L477.5976,-64.297646 L478.07806,-101.005905 L478.55856,-64.54272 L479.03903,-64.68699 L479.51953,-75.85675 L480,-64.910034" fill="none" stroke="burlywood" stroke-linejoin="round" stroke-width="2"/>
</g>
</g>
<g transform="translate(380, -322)">
<text font-size="12" text-anchor="start" x="0" y="0">
selection sort
</text>
<line stroke="burlywood" stroke-width="2" x1="-10" x2="-3" y1="-4" y2="-4"/>
</g>
<g>
<g>
<line stroke="black" stroke-width="1" x1="0" x2="0" y1="0" y2="10"/>
<line stroke="black" stroke-width="1" x1="96.09609609609609" x2="96.09609609609609" y1="0" y2="10"/>
<line stroke="black" stroke-width="1" x1="192.19219219219218" x2="192.19219219219218" y1="0" y2="10"/>
<line stroke="black" stroke-width="1" x1="288.2882882882883" x2="288.2882882882883" y1="0" y2="10"/>
<line stroke="black" stroke-width="1" x1="384.38438438438436" x2="384.38438438438436" y1="0" y2="10"/>
</g>
<line stroke="black" stroke-width="1" x1="0" x2="480" y1="0" y2="0"/>
<g>
<text font-size="12" text-anchor="middle" x="0" y="20">
1
</text>
<text font-size="12" text-anchor="middle" x="96.09609609609609" y="20">
201
</text>
<text font-size="12" text-anchor="middle" x="192.19219219219218" y="20">
401
</text>
<text font-size="12" text-anchor="middle" x="288.2882882882883" y="20">
601
</text>
<text font-size="12" text-anchor="middle" x="384.38438438438436" y="20">
801
</text>
</g>
<text font-size="12" text-anchor="middle" x="240" y="30">
Sample #
</text>
</g>
<g>
<g>
<line stroke="black" stroke-width="1" x1="0" x2="-10" y1="0.0000027678759503125484" y2="0.0000027678759503125484"/>
<line stroke="black" stroke-width="1" x1="0" x2="-10" y1="-110.71503524462628" y2="-110.71503524462628"/>
<line stroke="black" stroke-width="1" x1="0" x2="-10" y1="-221.43007325712856" y2="-221.43007325712856"/>
<line stroke="black" stroke-width="1" x1="0" x2="-10" y1="-332.1451112696308" y2="-332.1451112696308"/>
</g>
<line stroke="black" stroke-width="1" x1="0" x2="0" y1="0" y2="-340"/>
<g>
<text dominant-baseline="middle" font-size="12" text-anchor="end" x="-15" y="0.0000027678759503125484">
0.00004
</text>
<text dominant-baseline="middle" font-size="12" text-anchor="end" x="-15" y="-110.71503524462628">
40.00004
</text>
<text dominant-baseline="middle" font-size="12" text-anchor="end" x="-15" y="-221.43007325712856">
80.00004
</text>
<text dominant-baseline="middle" font-size="12" text-anchor="end" x="-15" y="-332.1451112696308">
120.00004
</text>
</g>
<text font-size="12" text-anchor="middle" transform="rotate(-90 -108 -170)" x="-108" y="-182">
Time (ms)
</text>
</g>
</g>
</svg>