<svg viewBox="0 0 600 400" xmlns="http://www.w3.org/2000/svg">
<g transform="translate(72, 364)">
<g>
<g>
<path d="M0,-0 L0,-0 L0.4804805,-0.0027155094 L0.960961,-0.0030488502 L1.4414414,-0.0060977004 L1.921922,-0.009488022 L2.4024024,-0.012878343 L2.8828828,-0.016943477 L3.3633633,-0.018634573 L3.843844,-0.026423369 L4.324324,-0.030488504 L4.804805,-0.03794396 L5.2852855,-0.04404166 L5.7657657,-0.05013936 L6.2462463,-0.057928156 L6.7267265,-0.068432465 L7.207207,-0.07792048 L7.687688,-0.08672556 L8.168168,-0.09282327 L8.648648,-0.105360135 L9.129129,-0.11484003 L9.60961,-0.12703542 L10.09009,-0.1378812 L10.570571,-0.1517677 L11.051051,-0.16057278 L11.531531,-0.17310965 L12.0120125,-0.18733762 L12.492493,-0.2005493 L12.972973,-0.21274471 L13.453453,-0.23341185 L13.933934,-0.24628207 L14.414414,-0.26524997 L14.894895,-0.2815105 L15.375376,-0.2947222 L15.855856,-0.30827534 L16.336336,-0.32961732 L16.816816,-0.34756893 L17.297297,-0.37026864 L17.777779,-0.38348034 L18.258259,-0.40854594 L18.738739,-0.42311537 L19.21922,-0.43835965 L19.6997,-0.4691896 L20.18018,-0.4830761 L20.66066,-0.51187354 L21.141142,-0.5318577 L21.621622,-0.56200475 L22.102102,-0.5738668 L22.582582,-0.59588355 L23.063063,-0.62772983 L23.543543,-0.6494051 L24.024025,-0.67786103 L24.504505,-0.69649565 L24.984985,-0.72698414 L25.465466,-0.75713116 L25.945946,-0.7777983 L26.426426,-0.8096446 L26.906906,-0.8320028 L27.387388,-0.87095493 L27.867868,-0.89568716 L28.348349,-0.9248179 L28.828829,-0.9556479 L29.309309,-0.9871527 L29.78979,-1.0210315 L30.27027,-1.0759108 L30.750751,-1.0806508 L31.231232,-1.1131718 L31.711712,-1.1531484 L32.192192,-1.1846532 L32.672672,-1.2120928 L33.153152,-1.2493538 L33.633633,-1.2808586 L34.114113,-1.3232011 L34.594593,-1.3479333 L35.075073,-1.3889261 L35.555557,-1.43161 L36.036037,-1.4715785 L36.516518,-1.5051157 L36.996998,-1.5474664 L37.477478,-1.5860851 L37.95796,-1.6297853 L38.43844,-1.9888667 L38.91892,-1.5586455 L39.3994,-1.597939 L39.87988,-1.6199558 L40.36036,-1.6721277 L40.84084,-1.70634 L41.32132,-39.61981 L41.801804,-1.7839189 L42.282284,-1.825928 L42.762764,-1.863189 L43.243244,-1.9085803 L43.723724,-1.9465243 L44.204205,-1.9861593 L44.684685,-2.034266 L45.165165,-2.0782995 L45.645645,-2.116585 L46.126125,-2.1541874 L46.606606,-2.2073677 L47.087086,-2.2395554 L47.567566,-2.2978168 L48.04805,-2.3276305 L48.52853,-2.3821683 L49.00901,-2.4218035 L49.48949,-2.472959 L49.96997,-2.5237732 L50.45045,-2.4746501 L50.93093,-2.407917 L51.41141,-2.4526334 L51.89189,-2.4976914 L52.37237,-2.5478225 L52.85285,-2.5854251 L53.333332,-2.6335318 L53.813812,-2.6873949 L54.294292,-2.7192411 L54.774776,-2.7697139 L55.255257,-2.8178205 L55.735737,-2.8947167 L56.216217,-2.9221563 L56.696697,-2.9716127 L57.177177,-3.0146382 L57.657658,-3.0596962 L58.138138,-3.11525 L58.618618,-3.1616578 L59.0991,-3.21722 L59.57958,-3.2622697 L60.06006,-77.911 L60.54054,-3.6758971 L61.021023,-3.7284107 L61.501503,-3.7748182 L61.981983,-3.833088 L62.462463,-3.8899996 L62.942944,-3.9526677 L63.423424,-3.9984004 L63.903904,-4.0570035 L64.384384,-4.1305175 L64.86487,-4.1901364 L65.345345,-4.081394 L65.82583,-3.9675705 L66.306305,-4.0214334 L66.78679,-4.0949473 L67.267265,-4.162697 L67.74775,-4.1935267 L68.228226,-4.255179 L68.70871,-4.3229365 L69.189186,-4.3744254 L69.66967,-4.4299793 L70.15015,-4.485542 L70.63063,-4.5492263 L71.111115,-4.6112194 L71.59159,-4.685408 L72.072075,-4.743336 L72.55255,-4.80872 L73.033035,-4.8449645 L73.51351,-4.7047176 L73.993996,-4.770101 L74.47447,-4.8283625 L74.954956,-4.9079742 L75.43543,-4.953032 L75.91592,-5.017058 L76.39639,-5.0800676 L76.87688,-5.142394 L77.35736,-5.207778 L77.83784,-5.2653646 L78.31832,-5.337862 L78.7988,-5.4022293 L79.27928,-5.4635396 L79.75976,-5.530281 L80.24024,-5.5922747 L80.72072,-5.643422 L81.2012,-5.731164 L81.68168,-5.80332 L82.16216,-5.8527765 L82.64264,-5.9215503 L83.12312,-6.005219 L83.60361,-6.089237 L84.08408,-6.138352 L84.56457,-6.206443 L85.045044,-6.2718267 L85.52553,-6.329755 L86.006004,-25.907097 L86.48649,-41.242813 L86.966965,-6.542833 L87.44745,-6.6139727 L87.927925,-6.680714 L88.40841,-6.772513 L88.888885,-6.832815 L89.36937,-9.968049 L89.84985,-6.990339 L90.33033,-7.053007 L90.810814,-7.124147 L91.29129,-7.1929207 L91.771774,-7.294883 L92.25225,-7.337908 L92.732735,-7.414804 L93.21321,-7.5147414 L93.693695,-7.5713115 L94.17417,-7.6688747 L94.654655,-7.7318845 L95.13513,-7.8064146 L95.615616,-7.8965225 L96.0961,-7.956825 L96.57658,-8.037453 L97.05706,-8.121463 L97.53754,-8.202765 L98.01802,-8.275263 L98.4985,-8.37181 L98.97898,-8.475804 L99.45946,-8.533399 L99.93994,-10.009043 L100.42042,-8.68211 L100.9009,-8.763754 L101.38138,-8.842349 L101.86186,-8.935506 L102.34234,-8.996824 L102.82282,-9.165186 L103.30331,-10.432491 L103.78378,-9.258009 L104.26427,-9.358279 L104.74474,-9.442289 L105.22523,-19.427275 L105.7057,-56.728268 L106.18619,-28.755407 L106.666664,-9.949081 L107.14715,-11.148296 L107.627625,-10.327139 L108.10811,-43.462044 L108.588585,-10.126248 L109.06907,-10.232284 L109.54955,-10.302749 L110.03003,-10.397263 L110.51051,-10.498208 L110.99099,-10.572063 L111.47147,-10.665562 L111.95195,-10.795979 L112.432434,-10.853574 L112.91291,-10.939275 L113.393394,-11.04057 L113.87387,-11.114076 L114.354355,-11.221802 L114.83483,-11.3000555 L115.315315,-11.395586 L115.7958,-11.493491 L116.276276,-11.58055 L116.75676,-11.683877 L117.237236,-11.77636 L117.71772,-11.865451 L118.1982,-11.975884 L118.67868,-12.060577 L119.15916,-12.183206 L119.63964,-12.264508 L120.12012,-15.3323345 L120.6006,-15.391954 L121.08108,-15.330302 L121.56156,-14.411916 L122.042046,-14.518967 L122.52252,-14.60196 L123.003006,-14.890926 L123.48348,-14.814031 L123.96397,-13.768274 L124.44444,-13.852284 L124.92493,-13.950864 L125.4054,-14.055541 L125.88589,-33.766357 L126.36636,-48.925243 L126.84685,-13.758112 L127.327324,-14.341458 L127.80781,-13.961369 L128.28828,-14.071802 L128.76877,-14.168349 L129.24925,-14.347215 L129.72974,-14.392947 L130.2102,-14.486104 L130.69069,-14.599595 L131.17117,-50.36159 L131.65166,-14.8143635 L132.13213,-14.919041 L132.61261,-15.035913 L133.0931,-15.14229 L133.57358,-15.285586 L134.05405,-15.347913 L134.53453,-22.420229 L135.01501,-19.321247 L135.4955,-22.38026 L135.97598,-18.007193 L136.45645,-18.102724 L136.93694,-31.479721 L137.41742,-70.01482 L137.8979,-16.700253 L138.37837,-16.337772 L138.85886,-16.439743 L139.33934,-26.89391 L139.81982,-16.675179 L140.3003,-16.784603 L140.78078,-16.916039 L141.26126,-17.054935 L141.74174,-17.13962 L142.22223,-20.378857 L142.7027,-19.804998 L143.18318,-21.445955 L143.66367,-19.977083 L144.14415,-20.05297 L144.62462,-18.645752 L145.1051,-18.773129 L145.58559,-18.86392 L146.06607,-19.020428 L146.54654,-18.287004 L147.02702,-18.442495 L147.5075,-18.52922 L147.98799,-65.296555 L148.46848,-18.817505 L148.94894,-62.48043 L149.42943,-23.847775 L149.90991,-23.726152 L150.3904,-22.427343 L150.87086,-22.064196 L151.35135,-22.172256 L151.83183,-23.07235 L152.31232,-21.27386 L152.79279,-20.754883 L153.27327,-20.899536 L153.75375,-22.422945 L154.23424,-20.267065 L154.71472,-20.361238 L155.19519,-21.05875 L155.67567,-20.620392 L156.15616,-20.744377 L156.63664,-20.901567 L157.11711,-22.169207 L157.5976,-21.12989 L158.07808,-21.260992 L158.55856,-21.397173 L159.03903,-29.409552 L159.51952,-21.641756 L160,-21.75592 L160.48048,-21.915478 L160.96097,-22.016432 L161.44144,-22.153288 L161.92192,-22.257965 L162.4024,-22.425652 L162.88289,-22.52897 L163.36336,-22.72647 L163.84384,-22.827084 L164.32433,-22.945648 L164.80481,-54.50193 L165.28528,-23.214962 L165.76576,-23.329803 L166.24625,-23.519514 L166.72673,-23.64316 L167.20721,-23.756641 L167.68768,-23.90028 L168.16817,-25.00972 L168.64865,-56.736397 L169.12914,-24.349476 L169.6096,-30.607075 L170.09009,-24.55544 L170.57057,-24.816626 L171.05106,-24.866423 L171.53152,-35.371746 L172.01201,-46.911644 L172.4925,-25.457567 L172.97298,-25.552414 L173.45346,-25.616781 L173.93393,-31.072533 L174.41441,-48.84394 L174.8949,-25.964693 L175.37538,-26.107647 L175.85585,-50.194923 L176.33633,-30.435999 L176.81682,-39.090668 L177.2973,-98.284775 L177.77777,-26.939308 L178.25826,-27.109703 L178.73874,-55.80006 L179.21922,-27.264177 L179.6997,-27.370213 L180.18018,-33.88797 L180.66066,-31.532568 L181.14114,-32.48584 L181.62163,-31.169754 L182.1021,-29.400406 L182.58258,-29.548782 L183.06306,-28.880068 L183.54355,-28.57959 L184.02402,-28.720512 L184.5045,-28.855003 L184.98499,-29.056902 L185.46547,-29.18766 L185.94595,-29.32859 L186.42642,-29.460365 L186.9069,-108.48148 L187.38739,-29.76017 L187.86787,-29.905499 L188.34834,-30.066746 L188.82883,-30.251375 L189.30931,-30.375021 L189.7898,-30.51561 L190.27026,-30.637897 L190.75075,-30.81304 L191.23123,-30.94719 L191.71172,-31.141973 L192.1922,-31.283237 L192.67267,-31.46177 L193.15315,-31.603033 L193.63364,-31.763939 L194.11412,-31.920113 L194.59459,-40.13473 L195.07507,-32.28665 L195.55556,-53.319992 L196.03604,-32.806644 L196.51651,-35.10413 L196.997,-43.675797 L197.47748,-76.524796 L197.95796,-33.543793 L198.43845,-33.55328 L198.91891,-33.561413 L199.3994,-33.662697 L199.87988,-121.13523 L200.36037,-93.708786 L200.84084,-34.13053 L201.32132,-34.341915 L201.8018,-34.437107 L202.28229,-34.64443 L202.76276,-34.76435 L203.24324,-34.94254 L203.72372,-35.129536 L204.20421,-35.266052 L204.68468,-35.477104 L205.16516,-108.4659 L205.64565,-35.769455 L206.12613,-35.996086 L206.60661,-36.111267 L207.08708,-36.264385 L207.56757,-36.445625 L208.04805,-36.791836 L208.52853,-36.75525 L209.009,-37.267796 L209.48949,-37.597748 L209.96997,-37.249836 L210.45045,-37.4846 L210.93092,-37.603504 L211.4114,-37.807102 L211.89189,-60.451588 L212.37238,-68.53274 L212.85286,-38.297626 L213.33333,-39.0551 L213.81381,-63.3585 L214.2943,-38.977184 L214.77478,-79.710846 L215.25525,-53.76885 L215.73573,-42.64766 L216.21622,-39.594402 L216.6967,-75.34997 L217.17717,-40.306816 L217.65765,-41.354607 L218.13814,-40.798367 L218.61862,-40.39253 L219.0991,-40.86849 L219.57957,-41.31294 L220.06006,-40.9254 L220.54054,-41.108665 L221.02103,-113.45687 L221.5015,-41.440315 L221.98198,-100.90543 L222.46246,-41.852253 L222.94295,-41.98606 L223.42342,-42.19914 L223.9039,-114.97791 L224.38438,-113.77903 L224.86487,-43.566723 L225.34535,-42.881065 L225.82582,-91.30019 L226.3063,-60.6352 L226.78679,-43.851616 L227.26727,-43.61008 L227.74774,-43.818417 L228.22823,-43.981365 L228.70871,-44.201218 L229.1892,-44.332317 L229.66966,-116.59346 L230.15015,-44.736797 L230.63063,-44.92786 L231.11111,-45.084034 L231.5916,-45.301517 L232.07207,-45.49461 L232.55255,-45.655857 L233.03304,-45.844547 L233.51352,-46.03764 L233.99399,-46.22565 L234.47447,-46.413666 L234.95496,-100.56498 L235.43544,-46.974655 L235.91591,-46.98042 L236.3964,-47.623043 L236.87688,-47.500072 L237.35736,-47.519047 L237.83784,-48.008556 L238.31831,-64.9605 L238.7988,-100.80211 L239.27928,-48.356125 L239.75977,-48.51907 L240.24023,-89.37196 L240.72072,-120.22464 L241.2012,-49.07836 L241.68169,-49.29517 L242.16216,-49.53874 L242.64264,-49.69186 L243.12312,-49.851418 L243.6036,-50.083805 L244.08409,-141.29457 L244.56456,-50.433407 L245.04504,-50.674942 L245.52553,-50.819935 L246.00601,-51.020477 L246.48648,-51.24406 L246.96696,-51.438854 L247.44745,-51.598743 L247.92793,-55.454865 L248.4084,-74.56337 L248.88889,-53.323376 L249.36937,-52.41652 L249.84985,-52.76781 L250.33034,-52.89214 L250.8108,-122.650505 L251.29129,-53.24174 L251.77177,-53.77495 L252.25226,-53.75157 L252.73273,-53.860313 L253.21321,-54.18282 L253.6937,-54.257008 L254.17418,-54.455517 L254.65465,-54.691635 L255.13513,-54.885746 L255.61562,-55.43183 L256.0961,-55.275997 L256.57657,-55.72282 L257.05707,-89.95023 L257.53754,-74.19073 L258.018,-125.41141 L258.4985,-56.34174 L258.97897,-56.48944 L259.45947,-56.723526 L259.93994,-56.955574 L260.4204,-57.16866 L260.9009,-57.35769 L261.38138,-57.578556 L261.86185,-127.39079 L262.34235,-125.8186 L262.8228,-58.18629 L263.3033,-58.41428 L263.78378,-59.1643 L264.26425,-59.031166 L264.74475,-59.080288 L265.22522,-59.292007 L265.70572,-126.66517 L266.1862,-59.718513 L266.66666,-59.933285 L267.14716,-60.08336 L267.62762,-60.34725 L268.1081,-60.56372 L268.5886,-60.761894 L269.06906,-91.055275 L269.54956,-61.32085 L270.03003,-61.440098 L270.5105,-61.63556 L270.991,-62.170807 L271.47147,-113.616425 L271.95197,-131.79909 L272.43243,-62.662346 L272.9129,-62.77481 L273.3934,-63.36053 L273.87387,-63.13661 L274.35434,-63.365955 L274.83484,-64.00317 L275.3153,-63.806007 L275.7958,-93.88833 L276.27628,-118.778465 L276.75674,-64.66544 L277.23724,-65.02453 L277.7177,-123.39205 L278.1982,-119.62436 L278.67868,-102.7117 L279.15915,-136.54039 L279.63965,-65.82231 L280.12012,-66.06216 L280.6006,-66.31385 L281.0811,-66.49034 L281.56155,-66.770836 L282.04205,-67.01271 L282.52252,-147.78693 L283.003,-94.39139 L283.4835,-67.64823 L283.96396,-79.54214 L284.44446,-68.08456 L284.92493,-77.99061 L285.4054,-124.7244 L285.8859,-68.848465 L286.36636,-69.079834 L286.84683,-69.4911 L287.32733,-154.27725 L287.8078,-69.70045 L288.2883,-69.94741 L288.76877,-70.18352 L289.24924,-70.41693 L289.72974,-70.63407 L290.2102,-70.84647 L290.6907,-110.68749 L291.17117,-128.96806 L291.65164,-121.88051 L292.13214,-171.06422 L292.6126,-127.661125 L293.09308,-72.3997 L293.57358,-91.52649 L294.05405,-91.89913 L294.53455,-131.16087 L295.015,-73.40819 L295.49548,-86.450836 L295.97598,-73.712395 L296.45645,-73.92649 L296.93695,-74.17515 L297.41742,-74.37637 L297.8979,-89.629425 L298.3784,-126.64111 L298.85886,-90.99769 L299.33932,-75.380455 L299.81982,-75.62301 L300.3003,-115.172356 L300.7808,-87.505394 L301.26126,-137.07834 L301.74173,-85.58326 L302.22223,-76.84391 L302.7027,-77.071556 L303.1832,-77.38558 L303.66367,-77.53328 L304.14413,-77.80429 L304.62463,-114.63813 L305.1051,-80.44629 L305.58557,-79.55602 L306.06607,-78.76841 L306.54654,-79.02756 L307.02704,-79.266045 L307.5075,-79.499115 L307.98798,-79.76097 L308.46848,-133.66905 L308.94894,-80.60855 L309.42944,-80.865 L309.9099,-81.60248 L310.39038,-152.57802 L310.87088,-81.38771 L311.35135,-81.55946 L311.83182,-83.62319 L312.31232,-126.20377 L312.7928,-83.48599 L313.2733,-82.48902 L313.75375,-82.74681 L314.23422,-83.00665 L314.71472,-152.41507 L315.1952,-83.49548 L315.6757,-83.7631 L316.15616,-100.569046 L316.63663,-154.18071 L317.11713,-146.51962 L317.5976,-87.61278 L318.07806,-85.03176 L318.55856,-85.3109 L319.03903,-85.55346 L319.51953,-85.837 L320,-86.126976 L320.48047,-162.18665 L320.96097,-86.593445 L321.44144,-86.826515 L321.92194,-87.10667 L322.4024,-88.81979 L322.88287,-157.39725 L323.36337,-87.87193 L323.84384,-88.142265 L324.3243,-88.3584 L324.8048,-162.59892 L325.28528,-88.94141 L325.76578,-89.22393 L326.24625,-127.363014 L326.7267,-143.76888 L327.2072,-94.92461 L327.68768,-100.43794 L328.16818,-90.699234 L328.64865,-92.14134 L329.12912,-91.20839 L329.60962,-91.54986 L330.0901,-127.40841 L330.57056,-180.97028 L331.05106,-181.24602 L331.53152,-98.05509 L332.01202,-180.88321 L332.4925,-92.904236 L332.97296,-93.09936 L333.45346,-131.74895 L333.93393,-94.170525 L334.41443,-95.00116 L334.8949,-95.09128 L335.37537,-94.549255 L335.85587,-168.45474 L336.33633,-95.0164 L336.8168,-96.61536 L337.2973,-131.27502 L337.77777,-186.96906 L338.25827,-138.71152 L338.73874,-151.02684 L339.2192,-200.34334 L339.6997,-97.11876 L340.18018,-106.83172 L340.66068,-97.45447 L341.14114,-97.72616 L341.6216,-102.34584 L342.1021,-158.03004 L342.58258,-98.55612 L343.06305,-98.83594 L343.54355,-99.09983 L344.02402,-169.88567 L344.50452,-99.65811 L344.985,-99.965706 L345.46545,-100.2069 L345.94595,-125.37381 L346.42642,-171.51036 L346.90692,-181.26974 L347.3874,-113.60525 L347.86786,-147.82791 L348.34836,-101.84414 L348.82883,-185.1533 L349.3093,-102.45323 L349.7898,-102.72255 L350.27026,-103.00033 L350.75076,-183.47339 L351.23123,-103.60942 L351.7117,-103.84961 L352.1922,-104.130775 L352.67267,-104.40314 L353.15317,-176.37363 L353.63364,-104.9892 L354.1141,-105.23615 L354.5946,-105.533585 L355.07507,-152.84464 L355.55554,-106.288 L356.03604,-178.34961 L356.5165,-133.59724 L356.997,-181.74434 L357.47748,-109.03164 L357.95795,-109.22134 L358.43845,-107.79888 L358.9189,-108.10445 L359.3994,-108.40052 L359.87988,-108.694565 L360.36035,-147.52066 L360.84085,-118.761536 L361.32132,-175.07245 L361.8018,-109.85719 L362.2823,-239.25989 L362.76276,-119.83981 L363.24326,-110.74712 L363.72372,-171.59879 L364.2042,-111.31522 L364.6847,-111.62553 L365.16516,-111.90874 L365.64566,-112.217 L366.12613,-184.06215 L366.6066,-112.83219 L367.0871,-113.07576 L367.56757,-114.87831 L368.04803,-140.95004 L368.52853,-114.25127 L369.009,-170.17464 L369.4895,-187.15639 L369.96997,-115.03956 L370.45044,-169.57231 L370.93094,-210.72942 L371.4114,-143.44977 L371.8919,-116.0301 L372.37238,-164.06508 L372.85284,-116.91664 L373.33334,-117.34382 L373.8138,-118.11416 L374.29428,-141.08318 L374.77478,-119.62639 L375.25525,-119.12468 L375.73575,-132.62973 L376.21622,-118.73985 L376.6967,-119.05118 L377.1772,-119.35538 L377.65765,-119.684654 L378.13815,-147.30826 L378.61862,-121.36593 L379.0991,-121.68098 L379.5796,-193.35843 L380.06006,-163.1572 L380.54053,-121.800224 L381.02103,-133.31097 L381.5015,-177.21646 L381.982,-217.2123 L382.46246,-139.75557 L382.94293,-123.00993 L383.42343,-140.0442 L383.9039,-208.46176 L384.3844,-123.94017 L384.86487,-124.19255 L385.34534,-196.46013 L385.82584,-124.84873 L386.3063,-125.27963 L386.78677,-125.49509 L387.26727,-150.03867 L387.74774,-126.05845 L388.22824,-126.403305 L388.7087,-126.71192 L389.18918,-236.53015 L389.66968,-127.39554 L390.15015,-127.64554 L390.63065,-127.97143 L391.1111,-247.03378 L391.59158,-129.47282 L392.07208,-128.91489 L392.55255,-238.1928 L393.03302,-284.66098 L393.51352,-130.18355 L393.994,-145.15442 L394.4745,-144.8336 L394.95496,-182.11427 L395.43542,-131.17271 L395.91592,-131.39969 L396.3964,-211.15254 L396.8769,-209.76802 L397.35736,-132.39294 L397.83783,-132.72594 L398.31833,-205.544 L398.7988,-133.34486 L399.27927,-133.74155 L399.75977,-204.80077 L400.24023,-134.30356 L400.72073,-201.71092 L401.2012,-164.24496 L401.68167,-135.58272 L402.16217,-135.60948 L402.64264,-144.6378 L403.1231,-164.46548 L403.6036,-178.74156 L404.08408,-139.56349 L404.56458,-211.09868 L405.04504,-137.72234 L405.5255,-214.92194 L406.006,-192.93124 L406.48648,-138.7271 L406.96698,-138.87175 L407.44745,-170.24069 L407.92792,-139.47644 L408.40842,-139.82367 L408.8889,-212.13731 L409.36935,-140.4795 L409.84985,-140.78947 L410.33032,-279.98846 L410.81082,-141.42737 L411.2913,-218.43456 L411.77176,-142.13774 L412.25226,-141.91992 L412.73273,-320.37625 L413.21323,-143.06189 L413.6937,-244.40634 L414.17416,-143.77667 L414.65466,-212.67865 L415.13513,-147.41699 L415.6156,-144.9752 L416.0961,-220.72423 L416.57657,-182.49605 L417.05707,-145.80212 L417.53754,-146.58907 L418.018,-144.76213 L418.4985,-232.3075 L418.97897,-147.2195 L419.45947,-147.4397 L419.93994,-147.9353 L420.4204,-149.87099 L420.9009,-169.6116 L421.38138,-188.19165 L421.86185,-149.15788 L422.34235,-149.4709 L422.8228,-213.88193 L423.3033,-150.53665 L423.78378,-221.39328 L424.26425,-150.82324 L424.74475,-194.24193 L425.22522,-152.4808 L425.70572,-226.2562 L426.1862,-207.65483 L426.66666,-340 L427.14716,-169.76134 L427.62762,-153.19287 L428.1081,-153.64749 L428.5886,-153.89377 L429.06906,-154.29453 L429.54956,-154.57503 L430.03003,-154.94258 L430.5105,-155.3125 L430.991,-194.67418 L431.47147,-155.99207 L431.95197,-156.38062 L432.43243,-269.10474 L432.9129,-174.19777 L433.3934,-157.40334 L433.87387,-157.69331 L434.35434,-158.08154 L434.83484,-229.74646 L435.3153,-204.878 L435.7958,-159.5355 L436.27628,-234.33295 L436.75674,-331.5025 L437.23724,-160.15509 L437.7177,-160.50742 L438.1982,-160.82314 L438.67868,-205.127 L439.15915,-234.44203 L439.63965,-248.57005 L440.12012,-162.26184 L440.6006,-162.60773 L441.0811,-271.5201 L441.56155,-163.31845 L442.04205,-191.27165 L442.52252,-179.78494 L443.003,-164.38249 L443.4835,-164.7304 L443.96396,-165.05629 L444.44446,-252.85573 L444.92493,-182.17255 L445.4054,-189.20047 L445.8859,-241.3497 L446.36636,-221.76965 L446.84683,-236.17987 L447.32733,-182.02992 L447.8078,-167.97607 L448.2883,-248.49045 L448.76877,-168.66478 L449.24924,-169.00624 L449.72974,-178.77544 L450.2102,-244.53812 L450.6907,-170.18616 L451.17117,-295.68054 L451.65164,-197.4632 L452.13214,-248.42406 L452.6126,-184.43681 L453.09308,-171.92603 L453.57358,-172.29393 L454.05405,-196.4232 L454.53455,-336.9979 L455.015,-254.32866 L455.49548,-173.87593 L455.97598,-175.05652 L456.45645,-174.45082 L456.93695,-174.83565 L457.41742,-175.21439 L457.8979,-175.57245 L458.3784,-221.89668 L458.85886,-250.89667 L459.33932,-176.70087 L459.81982,-227.34532 L460.3003,-185.87384 L460.7808,-177.72697 L461.26126,-249.95898 L461.74173,-178.52272 L462.22223,-253.4445 L462.7027,-179.24496 L463.1832,-248.41829 L463.66367,-179.98042 L464.14413,-228.49779 L464.62463,-246.58899 L465.1051,-181.48215 L465.58557,-181.9869 L466.06607,-216.15604 L466.54654,-202.65404 L467.02704,-182.5821 L467.5075,-244.08723 L467.98798,-185.86604 L468.46848,-183.97475 L468.94894,-184.38803 L469.42944,-256.86734 L469.9099,-184.85992 L470.39038,-255.6915 L470.87088,-255.91542 L471.35135,-185.97548 L471.83182,-284.25955 L472.31232,-257.49338 L472.7928,-263.92645 L473.2733,-187.50125 L473.75375,-213.46423 L474.23422,-250.63481 L474.71472,-188.62221 L475.1952,-190.60329 L475.6757,-264.33194 L476.15616,-189.73503 L476.63663,-190.16154 L477.11713,-261.6337 L477.5976,-190.83499 L478.07806,-267.03458 L478.55856,-259.8498 L479.03903,-228.7715 L479.51953,-286.46558 L480,-192.89365" fill="none" stroke="burlywood" stroke-linejoin="round" stroke-width="2"/>
</g>
</g>
<g transform="translate(380, -340)">
<text font-size="12" text-anchor="start" x="0" y="0">
selection
</text>
<line stroke="burlywood" stroke-width="2" x1="-10" x2="-3" y1="-4" y2="-4"/>
</g>
<g>
<g>
<line stroke="black" stroke-width="1" x1="0" x2="0" y1="0" y2="10"/>
<line stroke="black" stroke-width="1" x1="96.09609609609609" x2="96.09609609609609" y1="0" y2="10"/>
<line stroke="black" stroke-width="1" x1="192.19219219219218" x2="192.19219219219218" y1="0" y2="10"/>
<line stroke="black" stroke-width="1" x1="288.2882882882883" x2="288.2882882882883" y1="0" y2="10"/>
<line stroke="black" stroke-width="1" x1="384.38438438438436" x2="384.38438438438436" y1="0" y2="10"/>
</g>
<line stroke="black" stroke-width="1" x1="0" x2="480" y1="0" y2="0"/>
<g>
<text font-size="12" text-anchor="middle" x="0" y="20">
1
</text>
<text font-size="12" text-anchor="middle" x="96.09609609609609" y="20">
201
</text>
<text font-size="12" text-anchor="middle" x="192.19219219219218" y="20">
401
</text>
<text font-size="12" text-anchor="middle" x="288.2882882882883" y="20">
601
</text>
<text font-size="12" text-anchor="middle" x="384.38438438438436" y="20">
801
</text>
</g>
<text font-size="12" text-anchor="middle" x="240" y="30">
Sample #
</text>
</g>
<g>
<g>
<line stroke="black" stroke-width="1" x1="0" x2="-10" y1="0.00000813026754654014" y2="0.00000813026754654014"/>
<line stroke="black" stroke-width="1" x1="0" x2="-10" y1="-81.30266733513409" y2="-81.30266733513409"/>
<line stroke="black" stroke-width="1" x1="0" x2="-10" y1="-162.6053428005357" y2="-162.6053428005357"/>
<line stroke="black" stroke-width="1" x1="0" x2="-10" y1="-243.90801826593733" y2="-243.90801826593733"/>
<line stroke="black" stroke-width="1" x1="0" x2="-10" y1="-325.2106937313389" y2="-325.2106937313389"/>
</g>
<line stroke="black" stroke-width="1" x1="0" x2="0" y1="0" y2="-340"/>
<g>
<text dominant-baseline="middle" font-size="12" text-anchor="end" x="-15" y="0.00000813026754654014">
0.00004
</text>
<text dominant-baseline="middle" font-size="12" text-anchor="end" x="-15" y="-81.30266733513409">
10.00004
</text>
<text dominant-baseline="middle" font-size="12" text-anchor="end" x="-15" y="-162.6053428005357">
20.00004
</text>
<text dominant-baseline="middle" font-size="12" text-anchor="end" x="-15" y="-243.90801826593733">
30.00004
</text>
<text dominant-baseline="middle" font-size="12" text-anchor="end" x="-15" y="-325.2106937313389">
40.00004
</text>
</g>
<text font-size="12" text-anchor="middle" transform="rotate(-90 -96 -170)" x="-96" y="-182">
Time (ms)
</text>
</g>
</g>
</svg>