<svg viewBox="0 0 600 400" xmlns="http://www.w3.org/2000/svg">
<g transform="translate(72, 364)">
<g>
<g>
<path d="M0,-0 L0,-0 L0.4804805,-0.00093948777 L0.960961,-0.0025103113 L1.4414414,-0.004073619 L1.921922,-0.0072077503 L2.4024024,-0.007515902 L2.8828828,-0.011589522 L3.3633633,-0.015347472 L3.843844,-0.019105423 L4.324324,-0.022547707 L4.804805,-0.028500302 L5.2852855,-0.03476105 L5.7657657,-0.038210846 L6.2462463,-0.045095414 L6.7267265,-0.05073234 L7.207207,-0.062006194 L7.687688,-0.06169804 L8.168168,-0.07015343 L8.648648,-0.076414175 L9.129129,-0.08486956 L9.60961,-0.09270114 L10.09009,-0.10052519 L10.570571,-0.10992007 L11.051051,-0.11837546 L11.531531,-0.12620702 L12.0120125,-0.1365414 L12.492493,-0.14937855 L12.972973,-0.15689446 L13.453453,-0.16848397 L13.933934,-0.17819452 L14.414414,-0.19103168 L14.894895,-0.20292936 L15.375376,-0.217653 L15.855856,-0.22923501 L16.336336,-0.24082454 L16.816816,-0.25084323 L17.297297,-0.26932484 L17.777779,-0.2877989 L18.258259,-0.29593864 L18.738739,-0.31003097 L19.21922,-0.32537845 L19.6997,-0.3416654 L20.18018,-0.35544205 L20.66066,-0.37391612 L21.141142,-0.39239773 L21.621622,-0.40993235 L22.102102,-0.42872208 L22.582582,-0.44907516 L23.063063,-0.45847002 L23.543543,-0.47819927 L24.024025,-0.49604955 L24.504505,-0.513276 L24.984985,-0.53707886 L25.465466,-0.5511712 L25.945946,-0.575906 L26.426426,-0.59219295 L26.906906,-0.61474067 L27.387388,-0.63760406 L27.867868,-0.65607816 L28.348349,-0.68175995 L28.828829,-0.7024287 L29.309309,-0.72309744 L29.78979,-0.74564517 L30.27027,-0.76537436 L30.750751,-0.7929277 L31.231232,-0.81829387 L31.711712,-0.8411572 L32.192192,-0.8671472 L32.672672,-0.90066063 L33.153152,-0.91819525 L33.633633,-0.93886393 L34.114113,-0.96485394 L34.594593,-0.99273044 L35.075073,-1.0218545 L35.555557,-1.0450261 L36.036037,-1.0750897 L36.516518,-1.1007715 L36.996998,-1.1258221 L37.477478,-1.1580802 L37.95796,-1.1925256 L38.43844,-1.2188313 L38.91892,-1.2488949 L39.3994,-1.2726978 L39.87988,-1.3043247 L40.36036,-1.3481649 L40.84084,-1.3638281 L41.32132,-1.3976496 L41.801804,-1.427082 L42.282284,-1.4612192 L42.762764,-1.4925379 L43.243244,-1.5266676 L43.723724,-1.5598654 L44.204205,-1.5896133 L44.684685,-1.6275085 L45.165165,-1.6588273 L45.645645,-1.6945277 L46.126125,-1.7302283 L46.606606,-1.7665527 L47.087086,-1.7997504 L47.567566,-1.8345115 L48.04805,-1.8730304 L48.52853,-1.9146761 L49.00901,-1.949129 L49.48949,-1.9851377 L49.96997,-2.0183353 L50.45045,-2.0577939 L50.93093,-8.916055 L51.41141,-12.145698 L51.89189,-12.717538 L52.37237,-2.2375517 L52.85285,-2.2519522 L53.333332,-2.2857738 L53.813812,-2.3308692 L54.294292,-2.3913121 L54.774776,-15.6064625 L55.255257,-2.460834 L55.735737,-2.5021715 L56.216217,-2.5363088 L56.696697,-2.5826519 L57.177177,-2.6264997 L57.657658,-2.6678371 L58.138138,-2.7163749 L58.618618,-2.7511358 L59.0991,-2.8059418 L59.57958,-2.8491583 L60.06006,-2.8911195 L60.54054,-2.934336 L61.021023,-2.9806864 L61.501503,-3.0173266 L61.981983,-3.071817 L62.462463,-3.1112754 L62.942944,-3.1638865 L63.423424,-3.2177455 L63.903904,-3.268478 L64.384384,-3.315768 L64.86487,-3.3555422 L65.345345,-3.400322 L65.82583,-3.4488597 L66.306305,-3.5071077 L66.78679,-3.5500162 L67.267265,-3.601688 L67.74775,-3.6633785 L68.228226,-3.7012737 L68.70871,-3.7604613 L69.189186,-17.307243 L69.66967,-3.9132822 L70.15015,-3.9098399 L70.63063,-3.953996 L71.111115,-4.0222626 L71.59159,-4.060158 L72.072075,-4.125291 L72.55255,-4.1741443 L73.033035,-4.232708 L73.51351,-4.2962775 L73.993996,-4.3332334 L74.47447,-4.3952394 L74.954956,-4.4465957 L75.43543,-4.511736 L75.91592,-21.941113 L76.39639,-4.6232195 L76.87688,-4.6752067 L77.35736,-4.7312603 L77.83784,-4.794522 L78.31832,-4.847757 L78.7988,-4.9160314 L79.27928,-4.9630055 L79.75976,-5.0318966 L80.24024,-5.083884 L80.72072,-5.148709 L81.2012,-5.206641 L81.68168,-5.2648892 L82.16216,-5.331285 L82.64264,-5.4048734 L83.12312,-5.4581156 L83.60361,-5.5066533 L84.08408,-5.5595803 L84.56457,-5.6500793 L85.045044,-5.707704 L85.52553,-5.7656364 L86.006004,-5.849251 L86.48649,-5.9046807 L86.966965,-5.9619894 L87.44745,-6.0258746 L87.927925,-6.0878806 L88.40841,-6.1652346 L88.888885,-6.2197247 L89.36937,-6.290502 L89.84985,-6.3521924 L90.33033,-6.422654 L90.810814,-6.4855995 L91.29129,-6.5654564 L91.771774,-6.6321597 L92.25225,-6.6879053 L92.732735,-6.7458377 L93.21321,-6.846987 L93.693695,-6.905551 L94.17417,-6.976952 L94.654655,-7.057748 L95.13513,-7.111614 L95.615616,-7.189592 L96.0961,-7.2547245 L96.57658,-7.3436675 L97.05706,-7.396279 L97.53754,-7.4755044 L98.01802,-7.5494156 L98.4985,-7.6161194 L98.97898,-7.691278 L99.45946,-7.7595453 L99.93994,-7.833449 L100.42042,-7.9114265 L100.9009,-7.9847064 L101.38138,-8.059866 L101.86186,-8.152251 L102.34234,-8.231483 L102.82282,-8.280961 L103.30331,-8.361757 L103.78378,-8.44005 L104.26427,-8.5136385 L104.74474,-8.592555 L105.22523,-8.674606 L105.7057,-8.755403 L106.18619,-8.842459 L106.666664,-8.916994 L107.14715,-8.98714 L107.627625,-9.07013 L108.10811,-9.1468525 L108.588585,-9.224207 L109.06907,-9.295923 L109.54955,-9.377343 L110.03003,-9.476305 L110.51051,-9.54739 L110.99099,-9.634139 L111.47147,-9.701782 L111.95195,-9.799797 L112.432434,-9.879029 L112.91291,-9.955751 L113.393394,-10.0631695 L113.87387,-10.1264305 L114.354355,-10.204716 L114.83483,-10.29992 L115.315315,-10.385729 L115.7958,-10.479678 L116.276276,-10.539174 L116.75676,-10.644089 L117.237236,-10.726447 L117.71772,-10.820396 L118.1982,-10.914345 L118.67868,-10.987309 L119.15916,-11.081258 L119.63964,-11.179596 L120.12012,-11.276048 L120.6006,-11.35277 L121.08108,-52.363605 L121.56156,-45.55138 L122.042046,-11.6233425 L122.52252,-11.7370205 L123.003006,-11.793082 L123.48348,-11.896733 L123.96397,-11.981919 L124.44444,-12.074297 L124.92493,-12.175761 L125.4054,-12.283178 L125.88589,-12.377443 L126.36636,-12.463244 L126.84685,-12.524311 L127.327324,-12.660537 L127.80781,-12.736327 L128.28828,-12.822129 L128.76877,-12.901985 L129.24925,-13.040091 L129.72974,-13.11337 L130.2102,-13.201374 L130.69069,-13.3294525 L131.17117,-13.383003 L131.65166,-13.503258 L132.13213,-13.599086 L132.61261,-13.675184 L133.0931,-13.793251 L133.57358,-13.880624 L134.05405,-13.978639 L134.53453,-14.063508 L135.01501,-14.198171 L135.4955,-14.282093 L135.97598,-14.363829 L136.45645,-14.481895 L136.93694,-14.578032 L137.41742,-14.663841 L137.8979,-14.779082 L138.37837,-14.874601 L138.85886,-14.988588 L139.33934,-15.106024 L139.81982,-15.190893 L140.3003,-15.277642 L140.78078,-15.408231 L141.26126,-15.504998 L141.74174,-15.622434 L142.22223,-15.705417 L142.7027,-15.818787 L143.18318,-15.926828 L143.66367,-16.05366 L144.14415,-16.121302 L144.62462,-16.227465 L145.1051,-16.343645 L145.58559,-16.445425 L146.06607,-16.579456 L146.54654,-21.258106 L147.02702,-73.78267 L147.5075,-16.879469 L147.98799,-16.98563 L148.46848,-17.096174 L148.94894,-17.218624 L149.42943,-17.309439 L149.90991,-17.44598 L150.3904,-18.797586 L150.87086,-17.642017 L151.35135,-17.768532 L151.83183,-19.686028 L152.31232,-17.987432 L152.79279,-18.097353 L153.27327,-30.859354 L153.75375,-18.31469 L154.23424,-18.431187 L154.71472,-19.175577 L155.19519,-18.689861 L155.67567,-18.767208 L156.15616,-73.66117 L156.63664,-19.013046 L157.11711,-19.138937 L157.5976,-49.824795 L158.07808,-27.874918 L158.55856,-19.485607 L159.03903,-91.6796 L159.51952,-19.705448 L160,-19.843552 L160.48048,-19.970692 L160.96097,-20.060259 L161.44144,-20.17801 L161.92192,-20.297325 L162.4024,-20.414446 L162.88289,-20.548168 L163.36336,-20.66341 L163.84384,-20.788986 L164.32433,-20.896719 L164.80481,-21.040144 L165.28528,-21.15946 L165.76576,-21.269379 L166.24625,-21.3865 L166.72673,-21.516464 L167.20721,-21.637342 L167.68768,-21.776703 L168.16817,-21.878792 L168.64865,-22.016272 L169.12914,-22.124628 L169.6096,-22.246447 L170.09009,-22.387686 L170.57057,-22.511383 L171.05106,-22.823915 L171.53152,-22.752514 L172.01201,-22.886862 L172.4925,-23.084469 L172.97298,-23.12643 L173.45346,-23.483437 L173.93393,-23.386984 L174.41441,-23.51632 L174.8949,-23.693258 L175.37538,-23.759645 L175.85585,-24.161123 L176.33633,-24.04431 L176.81682,-24.161438 L177.2973,-24.532845 L177.77777,-24.421677 L178.25826,-75.2514 L178.73874,-24.70916 L179.21922,-24.811563 L179.6997,-25.456991 L180.18018,-25.094034 L180.66066,-26.57686 L181.14114,-25.375565 L181.62163,-25.806166 L182.1021,-25.613255 L182.58258,-26.337292 L183.06306,-67.769325 L183.54355,-26.046051 L184.02402,-80.26013 L184.5045,-26.296577 L184.98499,-26.438126 L185.46547,-57.427444 L185.94595,-26.79952 L186.42642,-26.906622 L186.9069,-26.956415 L187.38739,-159.55508 L187.86787,-27.244837 L188.34834,-27.389519 L188.82883,-27.52699 L189.30931,-27.676062 L189.7898,-27.798195 L190.27026,-27.939426 L190.75075,-28.08474 L191.23123,-28.242573 L191.71172,-28.369713 L192.1922,-28.493416 L192.67267,-28.671919 L193.15315,-28.7809 L193.63364,-28.941236 L194.11412,-29.08028 L194.59459,-29.202414 L195.07507,-29.376535 L195.55556,-29.504614 L196.03604,-29.673721 L196.51651,-29.78803 L196.997,-29.923 L197.47748,-30.107456 L197.95796,-30.220196 L198.43845,-30.40214 L198.91891,-100.70839 L199.3994,-30.66676 L199.87988,-45.587704 L200.36037,-30.942968 L200.84084,-31.16187 L201.32132,-31.272106 L201.8018,-32.010544 L202.28229,-31.744043 L202.76276,-31.705833 L203.24324,-34.10466 L203.72372,-32.00021 L204.20421,-33.680954 L204.68468,-32.312744 L205.16516,-82.716576 L205.64565,-32.621834 L206.12613,-33.41194 L206.60661,-32.914646 L207.08708,-33.317993 L207.56757,-42.68187 L208.04805,-70.74187 L208.52853,-35.86902 L209.009,-33.653084 L209.48949,-33.98879 L209.96997,-33.999756 L210.45045,-34.300076 L210.93092,-34.50332 L211.4114,-34.45509 L211.89189,-93.06973 L212.37238,-34.79205 L212.85286,-35.072334 L213.33333,-35.048847 L213.81381,-36.789093 L214.2943,-35.59907 L214.77478,-35.509197 L215.25525,-50.214684 L215.73573,-63.723892 L216.21622,-35.992718 L216.6967,-36.179672 L217.17717,-36.302124 L217.65765,-36.529163 L218.13814,-36.640656 L218.61862,-36.84922 L219.0991,-36.952248 L219.57957,-37.118855 L220.06006,-37.281384 L220.54054,-37.47742 L221.02103,-37.628365 L221.5015,-77.67497 L221.98198,-38.191433 L222.46246,-38.096546 L222.94295,-38.5143 L223.42342,-38.427868 L223.9039,-87.64106 L224.38438,-38.938324 L224.86487,-38.942707 L225.34535,-39.11119 L225.82582,-39.231762 L226.3063,-39.43594 L226.78679,-39.583755 L227.26727,-39.777287 L227.74774,-39.935436 L228.22823,-40.098595 L228.70871,-74.5778 L229.1892,-40.443386 L229.66966,-40.790997 L230.15015,-42.62362 L230.63063,-40.90875 L231.11111,-41.386005 L231.5916,-41.348427 L232.07207,-41.7261 L232.55255,-58.701706 L233.03304,-41.779335 L233.51352,-41.976627 L233.99399,-42.140415 L234.47447,-42.302315 L234.95496,-42.487087 L235.43544,-42.64147 L235.91591,-95.14756 L236.3964,-82.7861 L236.87688,-43.40653 L237.35736,-43.302246 L237.83784,-45.44428 L238.31831,-43.907593 L238.7988,-55.886063 L239.27928,-44.051956 L239.75977,-44.22858 L240.24023,-50.67754 L240.72072,-44.599365 L241.2012,-71.47968 L241.68169,-97.85642 L242.16216,-45.109196 L242.64264,-47.167614 L243.12312,-45.83636 L243.6036,-67.17557 L244.08409,-45.81506 L244.56456,-231.86684 L245.04504,-102.93592 L245.52553,-46.34963 L246.00601,-46.50152 L246.48648,-46.71133 L246.96696,-46.909565 L247.44745,-47.05644 L247.92793,-47.237446 L248.4084,-47.45134 L248.88889,-47.81711 L249.36937,-62.433975 L249.84985,-47.980896 L250.33034,-48.175053 L250.8108,-48.360764 L251.29129,-48.5258 L251.77177,-48.73374 L252.25226,-48.905037 L252.73273,-49.073204 L253.21321,-49.271435 L253.6937,-49.488148 L254.17418,-89.83695 L254.65465,-50.82347 L255.13513,-73.28287 L255.61562,-57.68079 L256.0961,-99.980286 L256.57657,-52.561836 L257.05707,-51.705963 L257.53754,-51.57882 L258.018,-51.401257 L258.4985,-83.57527 L258.97897,-105.9595 L259.45947,-68.288864 L259.93994,-81.41288 L260.4204,-52.277798 L260.9009,-52.48073 L261.38138,-52.7441 L261.86185,-52.86216 L262.34235,-53.083878 L262.8228,-71.77436 L263.3033,-53.23639 L263.78378,-53.46249 L264.26425,-53.63317 L264.74475,-53.844555 L265.22522,-54.004574 L265.70572,-90.531555 L266.1862,-54.646877 L266.66666,-55.496483 L267.14716,-54.981644 L267.62762,-56.855614 L268.1081,-148.71404 L268.5886,-112.06993 L269.06906,-55.838146 L269.54956,-55.93898 L270.03003,-57.691124 L270.5105,-120.144516 L270.991,-81.10943 L271.47147,-58.08039 L271.95197,-61.04134 L272.43243,-142.57478 L272.9129,-57.19132 L273.3934,-57.346333 L273.87387,-57.61722 L274.35434,-58.04281 L274.83484,-100.6752 L275.3153,-58.174023 L275.7958,-58.38353 L276.27628,-58.55921 L276.75674,-58.793144 L277.23724,-58.990753 L277.7177,-60.315746 L278.1982,-100.14251 L278.67868,-59.80936 L279.15915,-59.843185 L279.63965,-112.062416 L280.12012,-109.48446 L280.6006,-109.93667 L281.0811,-61.30471 L281.56155,-62.113926 L282.04205,-71.98856 L282.52252,-61.265877 L283.003,-113.03948 L283.4835,-72.96845 L283.96396,-170.05418 L284.44446,-62.098263 L284.92493,-62.46748 L285.4054,-106.48656 L285.8859,-62.70987 L286.36636,-62.92783 L286.84683,-63.157696 L287.32733,-63.341206 L287.8078,-63.55416 L288.2883,-63.753017 L288.76877,-63.97317 L289.24924,-64.16451 L289.72974,-64.37434 L290.2102,-96.10522 L290.6907,-65.10619 L291.17117,-65.201706 L291.65164,-134.29164 L292.13214,-65.9868 L292.6126,-67.6688 L293.09308,-118.82673 L293.57358,-66.33817 L294.05405,-67.32839 L294.53455,-115.47432 L295.015,-66.898735 L295.49548,-121.01135 L295.97598,-67.34687 L296.45645,-69.54965 L296.93695,-79.10393 L297.41742,-67.82664 L297.8979,-68.06119 L298.3784,-68.28103 L298.85886,-68.50996 L299.33932,-107.21591 L299.81982,-83.88937 L300.3003,-69.15977 L300.7808,-69.38712 L301.26126,-69.593185 L301.74173,-69.81303 L302.22223,-70.001236 L302.7027,-70.293106 L303.1832,-70.47129 L303.66367,-70.71336 L304.14413,-70.92037 L304.62463,-71.1208 L305.1051,-107.752045 L305.58557,-71.547005 L306.06607,-71.81758 L306.54654,-72.04274 L307.02704,-161.47603 L307.5075,-180.75275 L307.98798,-141.32808 L308.46848,-110.8345 L308.94894,-88.2154 L309.42944,-73.42567 L309.9099,-73.61106 L310.39038,-73.84656 L310.87088,-74.09834 L311.35135,-74.28781 L311.83182,-74.55368 L312.31232,-74.77258 L312.7928,-74.95985 L313.2733,-75.22542 L313.75375,-75.51728 L314.23422,-75.680435 L314.71472,-144.38643 L315.1952,-88.576164 L315.6757,-83.487274 L316.15616,-77.87132 L316.63663,-170.38269 L317.11713,-77.10502 L317.5976,-77.30263 L318.07806,-77.52591 L318.55856,-121.12315 L319.03903,-98.11635 L319.51953,-78.22207 L320,-78.600365 L320.48047,-78.734406 L320.96097,-129.46611 L321.44144,-79.746544 L321.92194,-79.65792 L322.4024,-79.65259 L322.88287,-79.87431 L323.36337,-80.12829 L323.84384,-169.44414 L324.3243,-81.59421 L324.8048,-133.64903 L325.28528,-135.58876 L325.76578,-190.76456 L326.24625,-81.5372 L326.7267,-81.740135 L327.2072,-82.01885 L327.68768,-82.28567 L328.16818,-82.481705 L328.64865,-82.730354 L329.12912,-135.61694 L329.60962,-83.23893 L330.0901,-84.74055 L330.57056,-83.684875 L331.05106,-83.9257 L331.53152,-84.19439 L332.01202,-84.464645 L332.4925,-84.65662 L332.97296,-84.878654 L333.45346,-155.87135 L333.93393,-85.421364 L334.41443,-85.65341 L334.8949,-85.8886 L335.37537,-86.13381 L335.85587,-161.31569 L336.33633,-86.646454 L336.8168,-86.86097 L337.2973,-102.28579 L337.77777,-196.99306 L338.25827,-141.2141 L338.73874,-89.31554 L339.2192,-89.82976 L339.6997,-109.527054 L340.18018,-165.15506 L340.66068,-89.31773 L341.14114,-104.03387 L341.6216,-89.34623 L342.1021,-89.60741 L342.58258,-89.86452 L343.06305,-161.8559 L343.54355,-143.83871 L344.02402,-90.624245 L344.50452,-90.87822 L344.985,-91.13157 L345.46545,-91.36519 L345.94595,-131.73561 L346.42642,-93.739586 L346.90692,-105.62411 L347.3874,-92.379524 L347.86786,-92.63443 L348.34836,-92.9144 L348.82883,-93.13831 L349.3093,-153.35416 L349.7898,-119.5564 L350.27026,-118.69332 L350.75076,-165.90352 L351.23123,-148.99023 L351.7117,-146.82378 L352.1922,-132.599 L352.67267,-198.03212 L353.15317,-95.79269 L353.63364,-96.17318 L354.1141,-96.22109 L354.5946,-112.881966 L355.07507,-96.506065 L355.55554,-97.14273 L356.03604,-98.93214 L356.5165,-149.36916 L356.997,-111.47617 L357.47748,-97.807884 L357.95795,-98.05685 L358.43845,-98.37878 L358.9189,-98.59204 L359.3994,-130.50111 L359.87988,-99.348015 L360.36035,-167.39105 L360.84085,-105.23766 L361.32132,-151.47174 L361.8018,-128.08882 L362.2823,-100.42842 L362.76276,-100.65891 L363.24326,-101.340355 L363.72372,-276.83917 L364.2042,-101.50163 L364.6847,-101.758736 L365.16516,-172.15393 L365.64566,-102.31179 L366.12613,-102.542274 L366.6066,-102.8473 L367.0871,-103.096886 L367.56757,-103.4041 L368.04803,-103.60891 L368.52853,-103.91674 L369.009,-104.15537 L369.4895,-169.78235 L369.96997,-202.50252 L370.45044,-194.665 L370.93094,-110.11016 L371.4114,-105.51137 L371.8919,-105.802925 L372.37238,-145.661 L372.85284,-120.60956 L373.33334,-106.604 L373.8138,-106.87676 L374.29428,-107.21246 L374.77478,-107.45297 L375.25525,-107.953415 L375.73575,-108.48265 L376.21622,-121.06303 L376.6967,-108.53026 L377.1772,-211.71858 L377.65765,-181.23752 L378.13815,-109.39959 L378.61862,-109.61098 L379.0991,-109.95577 L379.5796,-110.21037 L380.06006,-110.51195 L380.54053,-110.7274 L381.02103,-111.045265 L381.5015,-111.332436 L381.982,-123.032814 L382.46246,-111.868256 L382.94293,-112.18517 L383.42343,-112.41974 L383.9039,-112.73791 L384.3844,-112.975914 L384.86487,-113.23208 L385.34534,-113.58658 L385.82584,-113.85308 L386.3063,-182.94926 L386.78677,-114.42053 L387.26727,-114.68077 L387.74774,-188.8621 L388.22824,-115.28204 L388.7087,-115.53226 L389.18918,-189.70827 L389.66968,-116.11192 L390.15015,-140.51982 L390.63065,-139.01006 L391.1111,-232.43115 L391.59158,-117.290665 L392.07208,-117.50643 L392.55255,-158.16339 L393.03302,-193.52133 L393.51352,-212.05649 L393.994,-190.68063 L394.4745,-203.27666 L394.95496,-120.543175 L395.43542,-244.259 L395.91592,-120.00015 L396.3964,-120.10036 L396.8769,-123.53826 L397.35736,-173.9662 L397.83783,-121.01448 L398.31833,-191.99779 L398.7988,-195.79865 L399.27927,-194.71165 L399.75977,-122.18665 L400.24023,-194.75864 L400.72073,-122.982086 L401.2012,-123.05411 L401.68167,-175.4935 L402.16217,-137.9049 L402.64264,-123.93535 L403.1231,-189.84167 L403.6036,-124.582344 L404.08408,-124.79404 L404.56458,-196.61975 L405.04504,-125.401886 L405.5255,-125.72131 L406.006,-125.992516 L406.48648,-195.1075 L406.96698,-126.5916 L407.44745,-126.85622 L407.92792,-149.56427 L408.40842,-127.69894 L408.8889,-127.79727 L409.36935,-302.3488 L409.84985,-207.06561 L410.33032,-240.77443 L410.81082,-129.14983 L411.2913,-129.50401 L411.77176,-129.76236 L412.25226,-130.52179 L412.73273,-130.18576 L413.21323,-167.29803 L413.6937,-149.72021 L414.17416,-207.59204 L414.65466,-131.42369 L415.13513,-142.04868 L415.6156,-132.0973 L416.0961,-150.56012 L416.57657,-132.62466 L417.05707,-132.93971 L417.53754,-224.44269 L418.018,-204.51553 L418.4985,-145.83263 L418.97897,-161.22144 L419.45947,-135.26495 L419.93994,-141.80316 L420.4204,-141.60587 L420.9009,-135.40555 L421.38138,-135.67738 L421.86185,-135.98303 L422.34235,-269.7899 L422.8228,-151.2735 L423.3033,-136.94789 L423.78378,-225.35056 L424.26425,-137.93277 L424.74475,-139.14159 L425.22522,-188.34944 L425.70572,-200.88597 L426.1862,-156.38557 L426.66666,-170.35419 L427.14716,-242.44579 L427.62762,-140.22418 L428.1081,-140.39111 L428.5886,-209.85995 L429.06906,-140.78851 L429.54956,-153.37263 L430.03003,-141.28831 L430.5105,-141.57486 L430.991,-176.39197 L431.47147,-280.4421 L431.95197,-178.89632 L432.43243,-208.60982 L432.9129,-182.81993 L433.3934,-159.14328 L433.87387,-145.40265 L434.35434,-144.11084 L434.83484,-144.42651 L435.3153,-340 L435.7958,-145.38292 L436.27628,-219.45808 L436.75674,-145.75934 L437.23724,-146.03491 L437.7177,-146.308 L438.1982,-146.66093 L438.67868,-146.99132 L439.15915,-147.28664 L439.63965,-216.99944 L440.12012,-147.92204 L440.6006,-209.11057 L441.0811,-148.60756 L441.56155,-150.41576 L442.04205,-149.26675 L442.52252,-232.69077 L443.003,-249.78444 L443.4835,-259.2789 L443.96396,-215.0406 L444.44446,-176.28142 L444.92493,-152.62636 L445.4054,-226.89789 L445.8859,-228.02026 L446.36636,-306.14368 L446.84683,-205.52078 L447.32733,-204.2437 L447.8078,-188.67732 L448.2883,-223.39453 L448.76877,-153.82578 L449.24924,-154.12737 L449.72974,-236.74121 L450.2102,-154.7349 L450.6907,-192.31001 L451.17117,-240.74594 L451.65164,-164.70975 L452.13214,-159.07094 L452.6126,-159.08691 L453.09308,-157.54771 L453.57358,-159.30612 L454.05405,-171.537 L454.53455,-187.9151 L455.015,-158.09105 L455.49548,-170.0238 L455.97598,-234.747 L456.45645,-159.0844 L456.93695,-281.4317 L457.41742,-235.23209 L457.8979,-160.0693 L458.3784,-313.46823 L458.85886,-160.75858 L459.33932,-161.13812 L459.81982,-161.56465 L460.3003,-196.38176 L460.7808,-162.31342 L461.26126,-178.4269 L461.74173,-207.2463 L462.22223,-163.14519 L462.7027,-190.70914 L463.1832,-163.9973 L463.66367,-208.06178 L464.14413,-240.75157 L464.62463,-164.918 L465.1051,-178.35643 L465.58557,-165.53242 L466.06607,-165.8102 L466.54654,-166.1384 L467.02704,-166.47629 L467.5075,-166.8687 L467.98798,-244.44313 L468.46848,-169.13129 L468.94894,-177.92365 L469.42944,-168.26382 L469.9099,-244.47414 L470.39038,-235.2731 L470.87088,-205.06482 L471.35135,-195.65616 L471.83182,-170.2095 L472.31232,-247.80743 L472.7928,-198.84352 L473.2733,-256.54498 L473.75375,-171.35255 L474.23422,-171.70047 L474.71472,-172.05435 L475.1952,-247.46829 L475.6757,-172.70604 L476.15616,-253.29906 L476.63663,-284.35883 L477.11713,-207.37157 L477.5976,-241.36787 L478.07806,-175.1747 L478.55856,-174.85152 L479.03903,-292.33728 L479.51953,-175.73683 L480,-296.83713" fill="none" stroke="burlywood" stroke-linejoin="round" stroke-width="2"/>
</g>
</g>
<g transform="translate(380, -340)">
<text font-size="12" text-anchor="start" x="0" y="0">
selection
</text>
<line stroke="burlywood" stroke-width="2" x1="-10" x2="-3" y1="-4" y2="-4"/>
</g>
<g>
<g>
<line stroke="black" stroke-width="1" x1="0" x2="0" y1="0" y2="10"/>
<line stroke="black" stroke-width="1" x1="96.09609609609609" x2="96.09609609609609" y1="0" y2="10"/>
<line stroke="black" stroke-width="1" x1="192.19219219219218" x2="192.19219219219218" y1="0" y2="10"/>
<line stroke="black" stroke-width="1" x1="288.2882882882883" x2="288.2882882882883" y1="0" y2="10"/>
<line stroke="black" stroke-width="1" x1="384.38438438438436" x2="384.38438438438436" y1="0" y2="10"/>
</g>
<line stroke="black" stroke-width="1" x1="0" x2="480" y1="0" y2="0"/>
<g>
<text font-size="12" text-anchor="middle" x="0" y="20">
1
</text>
<text font-size="12" text-anchor="middle" x="96.09609609609609" y="20">
201
</text>
<text font-size="12" text-anchor="middle" x="192.19219219219218" y="20">
401
</text>
<text font-size="12" text-anchor="middle" x="288.2882882882883" y="20">
601
</text>
<text font-size="12" text-anchor="middle" x="384.38438438438436" y="20">
801
</text>
</g>
<text font-size="12" text-anchor="middle" x="240" y="30">
Sample #
</text>
</g>
<g>
<g>
<line stroke="black" stroke-width="1" x1="0" x2="-10" y1="0.0000075159021568362105" y2="0.0000075159021568362105"/>
<line stroke="black" stroke-width="1" x1="0" x2="-10" y1="-75.15901405246017" y2="-75.15901405246017"/>
<line stroke="black" stroke-width="1" x1="0" x2="-10" y1="-150.31803562082246" y2="-150.31803562082246"/>
<line stroke="black" stroke-width="1" x1="0" x2="-10" y1="-225.47705718918476" y2="-225.47705718918476"/>
<line stroke="black" stroke-width="1" x1="0" x2="-10" y1="-300.63607875754707" y2="-300.63607875754707"/>
</g>
<line stroke="black" stroke-width="1" x1="0" x2="0" y1="0" y2="-340"/>
<g>
<text dominant-baseline="middle" font-size="12" text-anchor="end" x="-15" y="0.0000075159021568362105">
0.00004
</text>
<text dominant-baseline="middle" font-size="12" text-anchor="end" x="-15" y="-75.15901405246017">
10.00004
</text>
<text dominant-baseline="middle" font-size="12" text-anchor="end" x="-15" y="-150.31803562082246">
20.00004
</text>
<text dominant-baseline="middle" font-size="12" text-anchor="end" x="-15" y="-225.47705718918476">
30.00004
</text>
<text dominant-baseline="middle" font-size="12" text-anchor="end" x="-15" y="-300.63607875754707">
40.00004
</text>
</g>
<text font-size="12" text-anchor="middle" transform="rotate(-90 -96 -170)" x="-96" y="-182">
Time (ms)
</text>
</g>
</g>
</svg>