<svg viewBox="0 0 600 400" xmlns="http://www.w3.org/2000/svg">
<g transform="translate(72, 364)">
<g>
<g>
<path d="M0,-0.007732787 L0,-0.007732787 L0,-0.006045879 L0,-0.00731106 L0,-0.005624152 L0,-0.006889333 L43.636364,-1.4417431 L43.636364,-1.4802619 L43.636364,-1.4442735 L43.636364,-1.3790474 L43.636364,-1.4529914 L480,-125.775314 L480,-124.843155 L480,-120.88201 L480,-125.76055 L480,-124.2772" fill="none" stroke="orange" stroke-linejoin="round" stroke-width="2"/>
</g>
<g>
<circle cx="0" cy="-0.007732787153475692" fill="orange" r="5"/>
<circle cx="0" cy="-0.0060458789611816935" fill="orange" r="5"/>
<circle cx="0" cy="-0.007311060105402195" fill="orange" r="5"/>
<circle cx="0" cy="-0.005624151913108194" fill="orange" r="5"/>
<circle cx="0" cy="-0.006889333057328691" fill="orange" r="5"/>
<circle cx="43.63636363636363" cy="-1.4417430770751434" fill="orange" r="5"/>
<circle cx="43.63636363636363" cy="-1.4802619387379845" fill="orange" r="5"/>
<circle cx="43.63636363636363" cy="-1.4442734393635839" fill="orange" r="5"/>
<circle cx="43.63636363636363" cy="-1.3790474472003442" fill="orange" r="5"/>
<circle cx="43.63636363636363" cy="-1.4529913809013595" fill="orange" r="5"/>
<circle cx="480" cy="-125.77531139010438" fill="orange" r="5"/>
<circle cx="480" cy="-124.84315628739013" fill="orange" r="5"/>
<circle cx="480" cy="-120.88201245130752" fill="orange" r="5"/>
<circle cx="480" cy="-125.76055094342179" fill="orange" r="5"/>
<circle cx="480" cy="-124.27719858887552" fill="orange" r="5"/>
</g>
</g>
<g transform="translate(380, -340)">
<text font-size="12" text-anchor="start" x="0" y="0">
insertion
</text>
<line stroke="orange" stroke-width="2" x1="-10" x2="-3" y1="-4" y2="-4"/>
</g>
<g>
<g>
<path d="M0,-0.0025303622 L0,-0.0025303622 L0,-0.00028002675 L0,-0.00028002675 L0,-0 L0,-0 L43.636364,-0.14366722 L43.636364,-0.13523269 L43.636364,-0.14408895 L43.636364,-0.14282377 L43.636364,-0.14282377 L480,-1.5543442 L480,-1.6587942 L480,-1.5329778 L480,-1.6659635 L480,-1.529604" fill="none" stroke="green" stroke-linejoin="round" stroke-width="2"/>
</g>
<g>
<circle cx="0" cy="-0.0025303622884409985" fill="green" r="5"/>
<circle cx="0" cy="-0.00028002675992080446" fill="green" r="5"/>
<circle cx="0" cy="-0.00028002675992080446" fill="green" r="5"/>
<circle cx="0" cy="-0" fill="green" r="5"/>
<circle cx="0" cy="-0" fill="green" r="5"/>
<circle cx="43.63636363636363" cy="-0.14366722310491073" fill="green" r="5"/>
<circle cx="43.63636363636363" cy="-0.13523268214344075" fill="green" r="5"/>
<circle cx="43.63636363636363" cy="-0.14408895015298423" fill="green" r="5"/>
<circle cx="43.63636363636363" cy="-0.14282376900876376" fill="green" r="5"/>
<circle cx="43.63636363636363" cy="-0.14282376900876376" fill="green" r="5"/>
<circle cx="480" cy="-1.5543441989107678" fill="green" r="5"/>
<circle cx="480" cy="-1.6587941803612274" fill="green" r="5"/>
<circle cx="480" cy="-1.532977819747172" fill="green" r="5"/>
<circle cx="480" cy="-1.6659635401784771" fill="green" r="5"/>
<circle cx="480" cy="-1.5296040033625835" fill="green" r="5"/>
</g>
</g>
<g transform="translate(380, -322)">
<text font-size="12" text-anchor="start" x="0" y="0">
quick
</text>
<line stroke="green" stroke-width="2" x1="-10" x2="-3" y1="-4" y2="-4"/>
</g>
<g>
<g>
<path d="M0,-0.040485796 L0,-0.040485796 L0,-0.038097136 L0,-0.040344097 L0,-0.0406275 L0,-0.039078914 L43.636364,-3.3721294 L43.636364,-3.3840795 L43.636364,-3.3544168 L43.636364,-3.3499196 L43.636364,-3.3870316 L480,-283.3085 L480,-284.16052 L480,-289.39023 L480,-284.91302 L480,-286.11987" fill="none" stroke="blue" stroke-linejoin="round" stroke-width="2"/>
</g>
<g>
<circle cx="0" cy="-0.04048579661505598" fill="blue" r="5"/>
<circle cx="0" cy="-0.03809713461476768" fill="blue" r="5"/>
<circle cx="0" cy="-0.040344096326903285" fill="blue" r="5"/>
<circle cx="0" cy="-0.04062749690320868" fill="blue" r="5"/>
<circle cx="0" cy="-0.039078915182682784" fill="blue" r="5"/>
<circle cx="43.63636363636363" cy="-3.3721294763957044" fill="blue" r="5"/>
<circle cx="43.63636363636363" cy="-3.3840795340299152" fill="blue" r="5"/>
<circle cx="43.63636363636363" cy="-3.354416940376617" fill="blue" r="5"/>
<circle cx="43.63636363636363" cy="-3.3499196431359617" fill="blue" r="5"/>
<circle cx="43.63636363636363" cy="-3.3870316233664295" fill="blue" r="5"/>
<circle cx="480" cy="-283.30849810862367" fill="blue" r="5"/>
<circle cx="480" cy="-284.1605284460203" fill="blue" r="5"/>
<circle cx="480" cy="-289.39022386889167" fill="blue" r="5"/>
<circle cx="480" cy="-284.9130312000716" fill="blue" r="5"/>
<circle cx="480" cy="-286.1198723113698" fill="blue" r="5"/>
</g>
</g>
<g transform="translate(380, -304)">
<text font-size="12" text-anchor="start" x="0" y="0">
bubble
</text>
<line stroke="blue" stroke-width="2" x1="-10" x2="-3" y1="-4" y2="-4"/>
</g>
<g>
<g>
<path d="M0,-0.08561059 L0,-0.08561059 L0,-0.024180142 L0,-0.023475014 L0,-0.024038441 L0,-0.02277326 L43.636364,-3.6790051 L43.636364,-3.685051 L43.636364,-3.680412 L43.636364,-3.680132 L43.636364,-3.6843493 L480,-340 L480,-336.06628 L480,-329.16962 L480,-338.68027 L480,-336.559" fill="none" stroke="red" stroke-linejoin="round" stroke-width="2"/>
</g>
<g>
<circle cx="0" cy="-0.08561059075892047" fill="red" r="5"/>
<circle cx="0" cy="-0.024180142028342188" fill="red" r="5"/>
<circle cx="0" cy="-0.0234750144039633" fill="red" r="5"/>
<circle cx="0" cy="-0.024038441740189483" fill="red" r="5"/>
<circle cx="0" cy="-0.02277326059596899" fill="red" r="5"/>
<circle cx="43.63636363636363" cy="-3.6790050671050594" fill="red" r="5"/>
<circle cx="43.63636363636363" cy="-3.6850509460662404" fill="red" r="5"/>
<circle cx="43.63636363636363" cy="-3.680411948537433" fill="red" r="5"/>
<circle cx="43.63636363636363" cy="-3.6801319217775115" fill="red" r="5"/>
<circle cx="43.63636363636363" cy="-3.6843491922582468" fill="red" r="5"/>
<circle cx="480" cy="-340" fill="red" r="5"/>
<circle cx="480" cy="-336.0662717958586" fill="red" r="5"/>
<circle cx="480" cy="-329.1696276784245" fill="red" r="5"/>
<circle cx="480" cy="-338.68027774010625" fill="red" r="5"/>
<circle cx="480" cy="-336.5589906882966" fill="red" r="5"/>
</g>
</g>
<g transform="translate(380, -286)">
<text font-size="12" text-anchor="start" x="0" y="0">
selection
</text>
<line stroke="red" stroke-width="2" x1="-10" x2="-3" y1="-4" y2="-4"/>
</g>
<g>
<g>
<line stroke="black" stroke-width="1" x1="0" x2="0" y1="0" y2="10"/>
<line stroke="black" stroke-width="1" x1="96.96969696969697" x2="96.96969696969697" y1="0" y2="10"/>
<line stroke="black" stroke-width="1" x1="193.93939393939394" x2="193.93939393939394" y1="0" y2="10"/>
<line stroke="black" stroke-width="1" x1="290.90909090909093" x2="290.90909090909093" y1="0" y2="10"/>
<line stroke="black" stroke-width="1" x1="387.8787878787879" x2="387.8787878787879" y1="0" y2="10"/>
</g>
<line stroke="black" stroke-width="1" x1="0" x2="480" y1="0" y2="0"/>
<g>
<text font-size="12" text-anchor="middle" x="0" y="20">
100
</text>
<text font-size="12" text-anchor="middle" x="96.96969696969697" y="20">
2100
</text>
<text font-size="12" text-anchor="middle" x="193.93939393939394" y="20">
4100
</text>
<text font-size="12" text-anchor="middle" x="290.90909090909093" y="20">
6100
</text>
<text font-size="12" text-anchor="middle" x="387.8787878787879" y="20">
8100
</text>
</g>
<text font-size="12" text-anchor="middle" x="240" y="30">
Samples
</text>
</g>
<g>
<g>
<line stroke="black" stroke-width="1" x1="0" x2="-10" y1="-0.000006747632769176892" y2="-0.000006747632769176892"/>
<line stroke="black" stroke-width="1" x1="0" x2="-10" y1="-67.47633443939273" y2="-67.47633443939273"/>
<line stroke="black" stroke-width="1" x1="0" x2="-10" y1="-134.95266213115272" y2="-134.95266213115272"/>
<line stroke="black" stroke-width="1" x1="0" x2="-10" y1="-202.42898982291268" y2="-202.42898982291268"/>
<line stroke="black" stroke-width="1" x1="0" x2="-10" y1="-269.9053175146726" y2="-269.9053175146726"/>
<line stroke="black" stroke-width="1" x1="0" x2="-10" y1="-337.3816452064326" y2="-337.3816452064326"/>
</g>
<line stroke="black" stroke-width="1" x1="0" x2="0" y1="0" y2="-340"/>
<g>
<text dominant-baseline="middle" font-size="12" text-anchor="end" x="-15" y="-0.000006747632769176892">
0.00321
</text>
<text dominant-baseline="middle" font-size="12" text-anchor="end" x="-15" y="-67.47633443939273">
20.00321
</text>
<text dominant-baseline="middle" font-size="12" text-anchor="end" x="-15" y="-134.95266213115272">
40.00321
</text>
<text dominant-baseline="middle" font-size="12" text-anchor="end" x="-15" y="-202.42898982291268">
60.00321
</text>
<text dominant-baseline="middle" font-size="12" text-anchor="end" x="-15" y="-269.9053175146726">
80.00321
</text>
<text dominant-baseline="middle" font-size="12" text-anchor="end" x="-15" y="-337.3816452064326">
100.00321
</text>
</g>
<text font-size="12" text-anchor="middle" transform="rotate(-90 -108 -170)" x="-108" y="-182">
Time (ms)
</text>
</g>
</g>
</svg>